<svg xmlns="http://www.w3.org/2000/svg" xmlns:xlink="http://www.w3.org/1999/xlink" width="329" zoomAndPan="magnify" viewBox="0 0 246.75 68.999997" height="92" preserveAspectRatio="xMidYMid meet" version="1.0"><defs><g/><clipPath id="186e7cbcdd"><path d="M 9.523438 24.945312 L 237.226562 24.945312 L 237.226562 42.484375 L 9.523438 42.484375 Z M 9.523438 24.945312 " clip-rule="nonzero"/></clipPath></defs><g fill="#ffffff" fill-opacity="1"><g transform="translate(12.334288, 52.875398)"><g><path d="M 13.945312 -46.828125 L 13.945312 -46.410156 L 16.925781 -38.015625 L 0.484375 -0.417969 L 0.484375 0 L 18.246094 0 L 18.246094 -0.417969 C 15.125 -3.953125 13.390625 -9.644531 13.25 -16.234375 L 24.628906 -16.234375 L 28.789062 -4.023438 L 25.25 -0.417969 L 25.25 0 L 44.050781 0 L 44.050781 -0.417969 L 28.234375 -46.828125 Z M 13.25 -17.480469 C 13.390625 -21.921875 14.222656 -26.777344 15.886719 -31.566406 L 17.480469 -36.074219 L 17.898438 -36.074219 L 24.210938 -17.480469 Z M 13.25 -17.480469 "/></g></g></g><g fill="#ffffff" fill-opacity="1"><g transform="translate(54.924958, 52.875398)"><g><path d="M 27.054688 -24.351562 C 37.253906 -25.804688 42.734375 -30.246094 42.734375 -36.628906 C 42.734375 -42.734375 37.601562 -46.828125 23.792969 -46.828125 L 2.21875 -46.828125 L 2.21875 -46.410156 L 5.964844 -42.804688 L 5.964844 -4.023438 L 2.21875 -0.417969 L 2.21875 0 L 22.476562 0 C 37.808594 0 45.160156 -7.285156 45.160156 -13.945312 C 45.160156 -19.980469 40.859375 -25.25 26.984375 -23.863281 Z M 21.574219 -45.648438 C 28.511719 -45.648438 29.136719 -40.511719 29.136719 -35.101562 C 29.136719 -28.304688 27.679688 -24.765625 21.4375 -24.695312 L 19.355469 -24.695312 L 19.355469 -45.648438 Z M 21.574219 -1.179688 C 20.046875 -1.109375 19.910156 -1.179688 19.355469 -1.25 L 19.355469 -23.449219 L 21.644531 -23.449219 C 27.402344 -23.449219 30.664062 -20.8125 30.664062 -12.554688 C 30.664062 -4.71875 27.679688 -1.386719 21.574219 -1.179688 Z M 21.574219 -1.179688 "/></g></g></g><g fill="#ffffff" fill-opacity="1"><g transform="translate(99.457896, 52.875398)"><g><path d="M 23.515625 1.039062 C 26.5 1.039062 45.023438 -3.121094 45.023438 -23.449219 C 45.023438 -36.976562 35.726562 -47.796875 23.378906 -47.796875 C 20.328125 -47.796875 1.804688 -43.636719 1.804688 -23.308594 C 1.804688 -9.78125 10.960938 1.039062 23.515625 1.039062 Z M 31.632812 -3.050781 C 27.054688 -1.664062 20.671875 -9.15625 15.746094 -22.128906 C 10.820312 -35.101562 11.515625 -42.527344 15.125 -43.703125 C 19.425781 -44.953125 25.183594 -38.777344 30.039062 -26.640625 C 35.449219 -13.179688 35.378906 -4.300781 31.632812 -3.050781 Z M 31.632812 -3.050781 "/></g></g></g><g fill="#ffffff" fill-opacity="1"><g transform="translate(144.129553, 52.875398)"><g><path d="M 42.804688 -46.828125 L 25.527344 -46.828125 L 25.527344 -46.410156 L 29.273438 -42.804688 L 29.207031 -9.433594 C 27.820312 -7.839844 26.152344 -6.730469 23.863281 -6.730469 C 19.980469 -6.730469 18.59375 -10.199219 18.59375 -15.746094 L 18.59375 -46.828125 L 1.386719 -46.828125 L 1.386719 -46.410156 L 5.0625 -42.804688 L 4.996094 -13.320312 C 4.996094 -3.328125 9.988281 1.039062 17.757812 1.039062 C 19.632812 1.039062 22.546875 -1.386719 29.207031 -7.699219 L 29.207031 0 L 46.410156 0 L 46.410156 -0.417969 L 42.734375 -4.023438 Z M 42.804688 -46.828125 "/></g></g></g><g fill="#ffffff" fill-opacity="1"><g transform="translate(190.119187, 52.875398)"><g><path d="M 42.527344 -46.828125 L 2.082031 -46.828125 L 2.082031 -27.125 L 2.496094 -27.125 C 13.113281 -45.507812 13.179688 -45.578125 14.707031 -45.578125 L 15.46875 -45.578125 L 15.46875 -4.300781 L 11.863281 -0.417969 L 11.863281 0 L 32.605469 0 L 32.605469 -0.417969 L 28.996094 -4.300781 L 28.996094 -45.578125 L 29.898438 -45.578125 C 31.078125 -45.578125 31.425781 -45.507812 42.109375 -27.125 L 42.527344 -27.125 Z M 42.527344 -46.828125 "/></g></g></g><g clip-path="url(#186e7cbcdd)"><path fill="#000000" d="M 9.523438 24.945312 L 237.203125 24.945312 L 237.203125 42.339844 L 9.523438 42.339844 Z M 9.523438 24.945312 " fill-opacity="1" fill-rule="nonzero"/></g><g fill="#ffffff" fill-opacity="1"><g transform="translate(88.113141, 35.967469)"><g><path d="M 0.0234375 0 L 0.851562 0 L 1.316406 -0.886719 L 3.855469 -0.886719 L 4.320312 0 L 5.152344 0 L 3.058594 -4.054688 L 2.132812 -4.054688 Z M 1.550781 -1.441406 L 2.585938 -3.476562 L 2.597656 -3.476562 L 3.625 -1.441406 Z M 1.550781 -1.441406 "/></g></g></g><g fill="#ffffff" fill-opacity="1"><g transform="translate(97.866281, 35.967469)"><g><path d="M 0.285156 0 L 3.398438 0 C 4.296875 0 4.878906 -0.445312 4.878906 -1.125 C 4.878906 -1.589844 4.578125 -1.96875 4.113281 -2.078125 L 4.113281 -2.082031 C 4.507812 -2.203125 4.765625 -2.539062 4.765625 -2.953125 C 4.765625 -3.621094 4.214844 -4.054688 3.375 -4.054688 L 0.285156 -4.054688 Z M 1.082031 -2.332031 L 1.082031 -3.519531 L 3.179688 -3.519531 C 3.660156 -3.519531 3.96875 -3.289062 3.96875 -2.921875 C 3.96875 -2.5625 3.660156 -2.332031 3.1875 -2.332031 Z M 1.082031 -0.539062 L 1.082031 -1.835938 L 3.191406 -1.835938 C 3.730469 -1.835938 4.085938 -1.574219 4.085938 -1.191406 C 4.085938 -0.796875 3.730469 -0.539062 3.191406 -0.539062 Z M 1.082031 -0.539062 "/></g></g></g><g fill="#ffffff" fill-opacity="1"><g transform="translate(107.442086, 35.967469)"><g><path d="M 3.039062 0.144531 C 4.71875 0.144531 5.863281 -0.738281 5.863281 -2.023438 C 5.863281 -3.304688 4.71875 -4.199219 3.039062 -4.199219 C 1.363281 -4.199219 0.21875 -3.304688 0.21875 -2.023438 C 0.21875 -0.738281 1.363281 0.144531 3.039062 0.144531 Z M 3.039062 -0.476562 C 1.84375 -0.476562 1.011719 -1.109375 1.011719 -2.023438 C 1.011719 -2.941406 1.84375 -3.574219 3.039062 -3.574219 C 4.234375 -3.574219 5.066406 -2.941406 5.066406 -2.023438 C 5.066406 -1.109375 4.234375 -0.476562 3.039062 -0.476562 Z M 3.039062 -0.476562 "/></g></g></g><g fill="#ffffff" fill-opacity="1"><g transform="translate(118.099039, 35.967469)"><g><path d="M 2.570312 0.132812 C 3.992188 0.132812 4.914062 -0.578125 4.914062 -1.847656 L 4.914062 -4.054688 L 4.117188 -4.054688 L 4.117188 -1.871094 C 4.117188 -0.960938 3.507812 -0.503906 2.574219 -0.503906 C 1.648438 -0.503906 1.03125 -0.960938 1.03125 -1.871094 L 1.03125 -4.054688 L 0.230469 -4.054688 L 0.230469 -1.847656 C 0.230469 -0.578125 1.148438 0.132812 2.570312 0.132812 Z M 2.570312 0.132812 "/></g></g></g><g fill="#ffffff" fill-opacity="1"><g transform="translate(127.817852, 35.967469)"><g><path d="M 1.851562 0 L 2.648438 0 L 2.648438 -3.433594 L 4.46875 -3.433594 L 4.46875 -4.054688 L 0.0351562 -4.054688 L 0.0351562 -3.433594 L 1.851562 -3.433594 Z M 1.851562 0 "/></g></g></g><g fill="#ffffff" fill-opacity="1"><g transform="translate(136.895989, 35.967469)"><g/></g></g><g fill="#ffffff" fill-opacity="1"><g transform="translate(143.125397, 35.967469)"><g><path d="M 0.285156 0 L 1.050781 0 L 1.050781 -3.226562 L 1.0625 -3.226562 L 2.824219 0 L 3.621094 0 L 5.371094 -3.226562 L 5.382812 -3.226562 L 5.382812 0 L 6.148438 0 L 6.148438 -4.054688 L 5.035156 -4.054688 L 3.21875 -0.714844 L 3.214844 -0.714844 L 1.390625 -4.054688 L 0.285156 -4.054688 Z M 0.285156 0 "/></g></g></g><g fill="#ffffff" fill-opacity="1"><g transform="translate(154.137008, 35.967469)"><g><path d="M 0.285156 0 L 4.375 0 L 4.375 -0.578125 L 1.058594 -0.578125 L 1.058594 -1.820312 L 4.089844 -1.820312 L 4.089844 -2.351562 L 1.058594 -2.351562 L 1.058594 -3.472656 L 4.320312 -3.472656 L 4.320312 -4.054688 L 0.285156 -4.054688 Z M 0.285156 0 "/></g></g></g></svg>