<svg xmlns="http://www.w3.org/2000/svg" xmlns:xlink="http://www.w3.org/1999/xlink" width="793" zoomAndPan="magnify" viewBox="0 0 594.75 510.750002" height="681" preserveAspectRatio="xMidYMid meet" version="1.0"><defs><clipPath id="958c050f92"><path d="M 0.0195312 0 L 594.480469 0 L 594.480469 510.5 L 0.0195312 510.5 Z M 0.0195312 0 " clip-rule="nonzero"/></clipPath><clipPath id="cf267630a6"><path d="M 43.761719 234.164062 L 539.964844 234.164062 L 539.964844 272 L 43.761719 272 Z M 43.761719 234.164062 " clip-rule="nonzero"/></clipPath></defs><g clip-path="url(#958c050f92)"><path fill="#ffffff" d="M 0.0195312 0 L 594.730469 0 L 594.730469 517.464844 L 0.0195312 517.464844 Z M 0.0195312 0 " fill-opacity="1" fill-rule="nonzero"/><path fill="#ffffff" d="M 0.0195312 0 L 594.730469 0 L 594.730469 510.714844 L 0.0195312 510.714844 Z M 0.0195312 0 " fill-opacity="1" fill-rule="nonzero"/><path fill="#ffffff" d="M 0.0195312 0 L 594.730469 0 L 594.730469 510.714844 L 0.0195312 510.714844 Z M 0.0195312 0 " fill-opacity="1" fill-rule="nonzero"/></g><path fill="#231f20" d="M 129.925781 207.238281 C 99.046875 188.917969 86.742188 182.144531 86.742188 171.605469 C 86.742188 165.839844 91.007812 161.820312 99.289062 161.820312 C 124.398438 161.820312 159.300781 185.65625 187.671875 223.792969 L 189.175781 223.792969 L 189.175781 151.03125 L 187.917969 151.03125 L 171.855469 161.074219 C 162.5625 155.300781 148.5 150.535156 130.925781 150.535156 C 96.027344 150.535156 67.660156 163.328125 67.15625 198.960938 C 66.652344 226.304688 84.480469 239.105469 105.570312 251.644531 L 134.691406 269.460938 C 158.542969 283.511719 179.128906 293.042969 179.128906 304.339844 C 179.128906 309.105469 175.867188 314.121094 164.570312 314.121094 C 145.492188 314.121094 93.519531 299.320312 63.136719 239.105469 L 61.378906 239.351562 L 65.652344 316.632812 C 88.246094 319.894531 108.835938 328.171875 133.1875 328.171875 C 176.621094 328.171875 198.210938 301.574219 198.210938 274.730469 C 198.210938 253.402344 184.402344 239.855469 160.046875 225.550781 Z M 129.925781 207.238281 " fill-opacity="1" fill-rule="nonzero"/><path fill="#231f20" d="M 249.425781 153.796875 L 249.425781 155.300781 L 260.222656 185.65625 L 200.71875 321.652344 L 200.71875 323.15625 L 264.992188 323.15625 L 264.992188 321.652344 C 253.691406 308.851562 247.417969 288.277344 246.914062 264.445312 L 288.09375 264.445312 L 303.15625 308.601562 L 290.347656 321.652344 L 290.347656 323.15625 L 358.386719 323.15625 L 358.386719 321.652344 L 301.144531 153.796875 Z M 246.914062 259.921875 C 247.417969 243.871094 250.429688 226.304688 256.457031 208.992188 L 262.234375 192.683594 L 263.738281 192.683594 L 286.582031 259.921875 Z M 246.914062 259.921875 " fill-opacity="1" fill-rule="nonzero"/><path fill="#231f20" d="M 534.132812 153.796875 L 481.65625 153.796875 L 451.03125 230.070312 L 449.769531 230.070312 L 413.367188 153.292969 L 359.140625 153.796875 L 359.140625 155.300781 L 373.195312 180.386719 L 373.195312 323.15625 L 426.171875 323.15625 L 426.171875 321.902344 C 395.039062 296.558594 378.71875 263.191406 378.71875 209.246094 L 378.71875 192.429688 L 379.980469 192.429688 L 429.433594 293.296875 L 432.195312 293.296875 L 474.125 190.175781 L 475.628906 190.175781 L 475.882812 308.601562 L 462.324219 321.652344 L 462.324219 323.15625 L 524.839844 323.15625 L 524.589844 168.34375 L 534.132812 155.300781 Z M 534.132812 153.796875 " fill-opacity="1" fill-rule="nonzero"/><g clip-path="url(#cf267630a6)"><path fill="#ffffff" d="M 43.761719 234.164062 L 540.273438 234.164062 L 540.273438 271.855469 L 43.761719 271.855469 Z M 43.761719 234.164062 " fill-opacity="1" fill-rule="nonzero"/></g><path fill="#231f20" d="M 152.1875 257.675781 C 154.933594 257.675781 156.773438 256.527344 156.773438 254.839844 C 156.773438 253.425781 155.648438 252.664062 153.019531 252.308594 L 150.957031 252.019531 C 149.578125 251.832031 148.996094 251.488281 148.996094 250.886719 C 148.996094 250.082031 150.085938 249.523438 151.621094 249.523438 C 153.148438 249.523438 154.546875 250.144531 155.234375 251.027344 L 156.039062 250.019531 C 155.261719 248.992188 153.554688 248.269531 151.605469 248.269531 C 149.078125 248.269531 147.292969 249.296875 147.292969 251 C 147.292969 252.371094 148.273438 253.0625 150.570312 253.363281 L 152.664062 253.6875 C 154.351562 253.925781 155.074219 254.332031 155.074219 254.988281 C 155.074219 255.800781 153.953125 256.394531 152.277344 256.394531 C 150.226562 256.394531 148.335938 255.527344 147.691406 254.265625 L 146.761719 255.261719 C 147.585938 256.679688 149.746094 257.675781 152.1875 257.675781 Z M 152.1875 257.675781 " fill-opacity="1" fill-rule="nonzero"/><path fill="#231f20" d="M 167.003906 257.375 L 168.804688 257.375 L 169.8125 255.449219 L 175.328125 255.449219 L 176.339844 257.375 L 178.152344 257.375 L 173.605469 248.5625 L 171.589844 248.5625 Z M 170.324219 254.246094 L 172.570312 249.824219 L 172.597656 249.824219 L 174.832031 254.246094 Z M 170.324219 254.246094 " fill-opacity="1" fill-rule="nonzero"/><path fill="#231f20" d="M 188.757812 257.375 L 190.425781 257.375 L 190.425781 250.371094 L 190.445312 250.371094 L 194.277344 257.375 L 196.007812 257.375 L 199.808594 250.371094 L 199.828125 250.371094 L 199.828125 257.375 L 201.496094 257.375 L 201.496094 248.5625 L 199.074219 248.5625 L 195.132812 255.820312 L 195.125 255.820312 L 191.152344 248.5625 L 188.757812 248.5625 Z M 188.757812 257.375 " fill-opacity="1" fill-rule="nonzero"/><path fill="#231f20" d="M 212.097656 257.375 L 213.894531 257.375 L 214.902344 255.449219 L 220.421875 255.449219 L 221.429688 257.375 L 223.242188 257.375 L 218.699219 248.5625 L 216.683594 248.5625 Z M 215.414062 254.246094 L 217.664062 249.824219 L 217.691406 249.824219 L 219.925781 254.246094 Z M 215.414062 254.246094 " fill-opacity="1" fill-rule="nonzero"/><path fill="#231f20" d="M 233.847656 257.375 L 242.734375 257.375 L 242.734375 256.121094 L 235.523438 256.121094 L 235.523438 253.425781 L 242.113281 253.425781 L 242.113281 252.265625 L 235.523438 252.265625 L 235.523438 249.835938 L 242.609375 249.835938 L 242.609375 248.5625 L 233.847656 248.5625 Z M 233.847656 257.375 " fill-opacity="1" fill-rule="nonzero"/><path fill="#231f20" d="M 253.539062 257.375 L 260.90625 257.375 L 260.90625 256.007812 L 255.261719 256.007812 L 255.261719 248.5625 L 253.539062 248.5625 Z M 253.539062 257.375 " fill-opacity="1" fill-rule="nonzero"/><path fill="#231f20" d="M 285.097656 257.375 L 286.765625 257.375 L 286.765625 250.371094 L 286.785156 250.371094 L 290.613281 257.375 L 292.34375 257.375 L 296.148438 250.371094 L 296.167969 250.371094 L 296.167969 257.375 L 297.835938 257.375 L 297.835938 248.5625 L 295.410156 248.5625 L 291.46875 255.820312 L 291.460938 255.820312 L 287.492188 248.5625 L 285.097656 248.5625 Z M 285.097656 257.375 " fill-opacity="1" fill-rule="nonzero"/><path fill="#231f20" d="M 313.964844 257.660156 C 317.0625 257.660156 319.0625 256.121094 319.0625 253.363281 L 319.0625 248.5625 L 317.332031 248.5625 L 317.332031 253.316406 C 317.332031 255.289062 316.003906 256.28125 313.980469 256.28125 C 311.964844 256.28125 310.625 255.289062 310.625 253.316406 L 310.625 248.5625 L 308.882812 248.5625 L 308.882812 253.363281 C 308.882812 256.121094 310.886719 257.660156 313.964844 257.660156 Z M 313.964844 257.660156 " fill-opacity="1" fill-rule="nonzero"/><path fill="#231f20" d="M 335.167969 257.675781 C 337.914062 257.675781 339.757812 256.527344 339.757812 254.839844 C 339.757812 253.425781 338.628906 252.664062 336.003906 252.308594 L 333.9375 252.019531 C 332.558594 251.832031 331.976562 251.488281 331.976562 250.886719 C 331.976562 250.082031 333.070312 249.523438 334.601562 249.523438 C 336.128906 249.523438 337.527344 250.144531 338.214844 251.027344 L 339.019531 250.019531 C 338.242188 248.992188 336.535156 248.269531 334.589844 248.269531 C 332.0625 248.269531 330.273438 249.296875 330.273438 251 C 330.273438 252.371094 331.253906 253.0625 333.550781 253.363281 L 335.644531 253.6875 C 337.332031 253.925781 338.054688 254.332031 338.054688 254.988281 C 338.054688 255.800781 336.933594 256.394531 335.261719 256.394531 C 333.207031 256.394531 331.316406 255.527344 330.675781 254.265625 L 329.742188 255.261719 C 330.570312 256.679688 332.726562 257.675781 335.167969 257.675781 Z M 335.167969 257.675781 " fill-opacity="1" fill-rule="nonzero"/><path fill="#231f20" d="M 356.253906 257.660156 C 358.363281 257.660156 360.105469 256.847656 361.003906 255.574219 L 361.015625 255.574219 L 361.136719 257.375 L 362.527344 257.375 L 362.527344 252.453125 L 354.476562 252.453125 L 354.476562 253.558594 L 360.863281 253.558594 C 360.828125 255.164062 358.984375 256.378906 356.660156 256.378906 C 354.027344 256.378906 352.136719 254.972656 352.136719 253 C 352.136719 251 353.878906 249.601562 356.324219 249.613281 C 357.921875 249.613281 359.414062 250.320312 359.753906 251.328125 L 361.359375 250.964844 C 360.902344 249.390625 358.753906 248.292969 356.324219 248.292969 C 352.859375 248.292969 350.40625 250.257812 350.40625 253.042969 C 350.40625 255.738281 352.835938 257.660156 356.253906 257.660156 Z M 356.253906 257.660156 " fill-opacity="1" fill-rule="nonzero"/><path fill="#231f20" d="M 382.726562 257.625 C 383.410156 257.625 384.042969 257.289062 384.414062 256.828125 L 383.894531 256.007812 C 383.707031 256.296875 383.433594 256.492188 383.160156 256.492188 C 382.824219 256.492188 382.648438 256.253906 382.5 255.960938 L 381.878906 254.699219 C 381.667969 254.230469 381.378906 253.867188 380.960938 253.644531 L 380.960938 253.636719 C 382.578125 253.460938 383.574219 252.519531 383.574219 251.203125 C 383.574219 249.570312 382.292969 248.5625 380.226562 248.5625 L 373.515625 248.5625 L 373.515625 257.375 L 375.238281 257.375 L 375.238281 253.960938 L 378.832031 253.960938 C 379.457031 253.960938 379.980469 254.34375 380.273438 254.96875 L 380.945312 256.394531 C 381.28125 257.050781 381.792969 257.625 382.726562 257.625 Z M 375.238281 252.761719 L 375.238281 249.796875 L 379.867188 249.796875 C 381.074219 249.796875 381.84375 250.382812 381.84375 251.300781 C 381.84375 252.183594 381.074219 252.761719 379.867188 252.761719 Z M 375.238281 252.761719 " fill-opacity="1" fill-rule="nonzero"/><path fill="#231f20" d="M 400.949219 257.683594 C 404.597656 257.683594 407.082031 255.773438 407.082031 252.980469 C 407.082031 250.195312 404.597656 248.257812 400.949219 248.257812 C 397.300781 248.257812 394.816406 250.195312 394.816406 252.980469 C 394.816406 255.773438 397.300781 257.683594 400.949219 257.683594 Z M 400.949219 256.34375 C 398.351562 256.34375 396.542969 254.96875 396.542969 252.980469 C 396.542969 250.992188 398.351562 249.613281 400.949219 249.613281 C 403.546875 249.613281 405.359375 250.992188 405.359375 252.980469 C 405.359375 254.96875 403.546875 256.34375 400.949219 256.34375 Z M 400.949219 256.34375 " fill-opacity="1" fill-rule="nonzero"/><path fill="#231f20" d="M 422.046875 257.375 L 423.980469 257.375 L 428.550781 248.5625 L 426.695312 248.5625 L 423.035156 255.757812 L 423.003906 255.757812 L 419.328125 248.5625 L 417.488281 248.5625 Z M 422.046875 257.375 " fill-opacity="1" fill-rule="nonzero"/><path fill="#231f20" d="M 439.105469 257.375 L 447.988281 257.375 L 447.988281 256.121094 L 440.777344 256.121094 L 440.777344 253.425781 L 447.367188 253.425781 L 447.367188 252.265625 L 440.777344 252.265625 L 440.777344 249.835938 L 447.863281 249.835938 L 447.863281 248.5625 L 439.105469 248.5625 Z M 439.105469 257.375 " fill-opacity="1" fill-rule="nonzero"/><path fill="#231f20" d="M 64.238281 411.632812 L 65.960938 411.632812 L 65.960938 407.945312 L 71.941406 407.945312 L 71.941406 406.742188 L 65.960938 406.742188 L 65.960938 404.1875 L 72.667969 404.1875 L 72.667969 402.832031 L 64.238281 402.832031 Z M 64.238281 411.632812 " fill-opacity="1" fill-rule="nonzero"/><path fill="#231f20" d="M 88.394531 411.921875 C 91.484375 411.921875 93.484375 410.382812 93.484375 407.625 L 93.484375 402.832031 L 91.753906 402.832031 L 91.753906 407.574219 C 91.753906 409.546875 90.425781 410.542969 88.402344 410.542969 C 86.390625 410.542969 85.046875 409.546875 85.046875 407.574219 L 85.046875 402.832031 L 83.3125 402.832031 L 83.3125 407.625 C 83.3125 410.382812 85.3125 411.921875 88.394531 411.921875 Z M 88.394531 411.921875 " fill-opacity="1" fill-rule="nonzero"/><path fill="#231f20" d="M 104.550781 411.632812 L 111.917969 411.632812 L 111.917969 410.269531 L 106.273438 410.269531 L 106.273438 402.832031 L 104.550781 402.832031 Z M 104.550781 411.632812 " fill-opacity="1" fill-rule="nonzero"/><path fill="#231f20" d="M 122.578125 411.632812 L 129.945312 411.632812 L 129.945312 410.269531 L 124.300781 410.269531 L 124.300781 402.832031 L 122.578125 402.832031 Z M 122.578125 411.632812 " fill-opacity="1" fill-rule="nonzero"/><path fill="#231f20" d="M 140.570312 408.863281 L 145.890625 408.863281 L 145.890625 407.800781 L 140.570312 407.800781 Z M 140.570312 408.863281 " fill-opacity="1" fill-rule="nonzero"/><path fill="#231f20" d="M 162.082031 411.933594 C 164.828125 411.933594 166.664062 410.785156 166.664062 409.101562 C 166.664062 407.6875 165.535156 406.929688 162.917969 406.566406 L 160.851562 406.28125 C 159.472656 406.097656 158.890625 405.75 158.890625 405.152344 C 158.890625 404.347656 159.980469 403.789062 161.507812 403.789062 C 163.035156 403.789062 164.441406 404.410156 165.121094 405.285156 L 165.933594 404.285156 C 165.148438 403.257812 163.449219 402.535156 161.496094 402.535156 C 158.972656 402.535156 157.1875 403.566406 157.1875 405.265625 C 157.1875 406.628906 158.167969 407.324219 160.464844 407.625 L 162.550781 407.945312 C 164.238281 408.183594 164.960938 408.589844 164.960938 409.246094 C 164.960938 410.058594 163.847656 410.652344 162.167969 410.652344 C 160.117188 410.652344 158.230469 409.785156 157.585938 408.527344 L 156.648438 409.519531 C 157.484375 410.941406 159.632812 411.933594 162.082031 411.933594 Z M 162.082031 411.933594 " fill-opacity="1" fill-rule="nonzero"/><path fill="#231f20" d="M 180.882812 411.632812 L 182.605469 411.632812 L 182.605469 404.1875 L 186.5625 404.1875 L 186.5625 402.832031 L 176.933594 402.832031 L 176.933594 404.1875 L 180.882812 404.1875 Z M 180.882812 411.632812 " fill-opacity="1" fill-rule="nonzero"/><path fill="#231f20" d="M 196.625 411.632812 L 198.425781 411.632812 L 199.433594 409.710938 L 204.953125 409.710938 L 205.953125 411.632812 L 207.765625 411.632812 L 203.222656 402.832031 L 201.210938 402.832031 Z M 199.945312 408.503906 L 202.191406 404.082031 L 202.214844 404.082031 L 204.453125 408.503906 Z M 199.945312 408.503906 " fill-opacity="1" fill-rule="nonzero"/><path fill="#231f20" d="M 224.3125 411.921875 C 227.167969 411.921875 229.367188 410.605469 229.960938 408.527344 L 228.359375 408.15625 C 227.910156 409.632812 226.363281 410.578125 224.332031 410.578125 C 221.664062 410.578125 219.960938 409.277344 219.960938 407.238281 C 219.960938 405.203125 221.515625 403.902344 223.945312 403.902344 C 225.710938 403.902344 227.089844 404.734375 227.519531 406.050781 L 229.078125 405.585938 C 228.433594 403.742188 226.425781 402.558594 223.910156 402.558594 C 220.429688 402.558594 218.234375 404.382812 218.234375 407.238281 C 218.234375 410.121094 220.59375 411.921875 224.3125 411.921875 Z M 224.3125 411.921875 " fill-opacity="1" fill-rule="nonzero"/><path fill="#231f20" d="M 240.863281 411.632812 L 242.585938 411.632812 L 242.585938 408.652344 L 244.105469 407.511719 L 248.132812 411.632812 L 250.335938 411.632812 L 245.332031 406.546875 L 250.238281 402.832031 L 247.894531 402.832031 L 242.601562 406.839844 L 242.585938 406.839844 L 242.585938 402.832031 L 240.863281 402.832031 Z M 240.863281 411.632812 " fill-opacity="1" fill-rule="nonzero"/><path fill="#231f20" d="M 277.695312 411.632812 L 279.789062 411.632812 L 282.898438 404.308594 L 282.914062 404.308594 L 286 411.632812 L 288.101562 411.632812 L 291.980469 402.832031 L 290.1875 402.832031 L 287.039062 410.171875 L 287.007812 410.171875 L 283.992188 402.832031 L 281.808594 402.832031 L 278.796875 410.171875 L 278.789062 410.171875 L 275.601562 402.832031 L 273.804688 402.832031 Z M 277.695312 411.632812 " fill-opacity="1" fill-rule="nonzero"/><path fill="#231f20" d="M 302.546875 411.632812 L 311.425781 411.632812 L 311.425781 410.382812 L 304.21875 410.382812 L 304.21875 407.6875 L 310.800781 407.6875 L 310.800781 406.53125 L 304.21875 406.53125 L 304.21875 404.097656 L 311.300781 404.097656 L 311.300781 402.832031 L 302.546875 402.832031 Z M 302.546875 411.632812 " fill-opacity="1" fill-rule="nonzero"/><path fill="#231f20" d="M 322.242188 411.632812 L 329 411.632812 C 330.945312 411.632812 332.210938 410.667969 332.210938 409.191406 C 332.210938 408.183594 331.554688 407.363281 330.550781 407.128906 L 330.550781 407.113281 C 331.40625 406.855469 331.96875 406.121094 331.96875 405.230469 C 331.96875 403.773438 330.769531 402.832031 328.949219 402.832031 L 322.242188 402.832031 Z M 323.964844 406.566406 L 323.964844 404 L 328.523438 404 C 329.566406 404 330.238281 404.496094 330.238281 405.285156 C 330.238281 406.070312 329.566406 406.566406 328.535156 406.566406 Z M 323.964844 410.464844 L 323.964844 407.652344 L 328.550781 407.652344 C 329.71875 407.652344 330.488281 408.21875 330.488281 409.050781 C 330.488281 409.90625 329.71875 410.464844 328.550781 410.464844 Z M 323.964844 410.464844 " fill-opacity="1" fill-rule="nonzero"/><path fill="#231f20" d="M 356.574219 411.632812 L 362.101562 411.632812 C 365.433594 411.632812 367.28125 410.058594 367.28125 407.238281 C 367.28125 404.410156 365.433594 402.832031 362.101562 402.832031 L 356.574219 402.832031 Z M 358.277344 410.332031 L 358.277344 404.160156 L 361.953125 404.160156 C 364.285156 404.160156 365.59375 405.25 365.59375 407.238281 C 365.59375 409.226562 364.285156 410.332031 361.953125 410.332031 Z M 358.277344 410.332031 " fill-opacity="1" fill-rule="nonzero"/><path fill="#231f20" d="M 378.320312 411.632812 L 387.199219 411.632812 L 387.199219 410.382812 L 379.996094 410.382812 L 379.996094 407.6875 L 386.578125 407.6875 L 386.578125 406.53125 L 379.996094 406.53125 L 379.996094 404.097656 L 387.074219 404.097656 L 387.074219 402.832031 L 378.320312 402.832031 Z M 378.320312 411.632812 " fill-opacity="1" fill-rule="nonzero"/><path fill="#231f20" d="M 401.953125 411.632812 L 403.878906 411.632812 L 408.449219 402.832031 L 406.601562 402.832031 L 402.933594 410.015625 L 402.910156 410.015625 L 399.234375 402.832031 L 397.394531 402.832031 Z M 401.953125 411.632812 " fill-opacity="1" fill-rule="nonzero"/><path fill="#231f20" d="M 419.015625 411.632812 L 427.894531 411.632812 L 427.894531 410.382812 L 420.691406 410.382812 L 420.691406 407.6875 L 427.273438 407.6875 L 427.273438 406.53125 L 420.691406 406.53125 L 420.691406 404.097656 L 427.769531 404.097656 L 427.769531 402.832031 L 419.015625 402.832031 Z M 419.015625 411.632812 " fill-opacity="1" fill-rule="nonzero"/><path fill="#231f20" d="M 438.710938 411.632812 L 446.078125 411.632812 L 446.078125 410.269531 L 440.433594 410.269531 L 440.433594 402.832031 L 438.710938 402.832031 Z M 438.710938 411.632812 " fill-opacity="1" fill-rule="nonzero"/><path fill="#231f20" d="M 462.714844 411.941406 C 466.371094 411.941406 468.847656 410.03125 468.847656 407.238281 C 468.847656 404.460938 466.371094 402.523438 462.714844 402.523438 C 459.074219 402.523438 456.589844 404.460938 456.589844 407.238281 C 456.589844 410.03125 459.074219 411.941406 462.714844 411.941406 Z M 462.714844 410.605469 C 460.117188 410.605469 458.316406 409.226562 458.316406 407.238281 C 458.316406 405.25 460.117188 403.875 462.714844 403.875 C 465.3125 403.875 467.125 405.25 467.125 407.238281 C 467.125 409.226562 465.3125 410.605469 462.714844 410.605469 Z M 462.714844 410.605469 " fill-opacity="1" fill-rule="nonzero"/><path fill="#231f20" d="M 479.890625 411.632812 L 481.613281 411.632812 L 481.613281 408.589844 L 486.277344 408.589844 C 488.523438 408.589844 489.777344 407.539062 489.792969 405.734375 C 489.792969 403.902344 488.53125 402.832031 486.28125 402.832031 L 479.890625 402.832031 Z M 481.613281 407.398438 L 481.613281 404.035156 L 485.847656 404.035156 C 487.261719 404.035156 488.0625 404.65625 488.0625 405.726562 C 488.0625 406.777344 487.261719 407.398438 485.847656 407.398438 Z M 481.613281 407.398438 " fill-opacity="1" fill-rule="nonzero"/><path fill="#231f20" d="M 500.554688 411.632812 L 509.433594 411.632812 L 509.433594 410.382812 L 502.226562 410.382812 L 502.226562 407.6875 L 508.808594 407.6875 L 508.808594 406.53125 L 502.226562 406.53125 L 502.226562 404.097656 L 509.308594 404.097656 L 509.308594 402.832031 L 500.554688 402.832031 Z M 500.554688 411.632812 " fill-opacity="1" fill-rule="nonzero"/><path fill="#231f20" d="M 529.453125 411.878906 C 530.136719 411.878906 530.769531 411.550781 531.148438 411.089844 L 530.621094 410.269531 C 530.433594 410.554688 530.160156 410.753906 529.886719 410.753906 C 529.550781 410.753906 529.382812 410.515625 529.226562 410.21875 L 528.613281 408.96875 C 528.394531 408.492188 528.113281 408.136719 527.6875 407.910156 L 527.6875 407.898438 C 529.304688 407.722656 530.300781 406.777344 530.300781 405.460938 C 530.300781 403.839844 529.019531 402.832031 526.960938 402.832031 L 520.25 402.832031 L 520.25 411.632812 L 521.972656 411.632812 L 521.972656 408.21875 L 525.566406 408.21875 C 526.1875 408.21875 526.707031 408.605469 527.007812 409.226562 L 527.679688 410.652344 C 528.011719 411.3125 528.519531 411.878906 529.453125 411.878906 Z M 521.972656 407.027344 L 521.972656 404.0625 L 526.59375 404.0625 C 527.800781 404.0625 528.570312 404.644531 528.570312 405.558594 C 528.570312 406.441406 527.800781 407.027344 526.59375 407.027344 Z M 521.972656 407.027344 " fill-opacity="1" fill-rule="nonzero"/></svg>