<svg xmlns="http://www.w3.org/2000/svg" xmlns:xlink="http://www.w3.org/1999/xlink" width="329" zoomAndPan="magnify" viewBox="0 0 246.75 68.999997" height="92" preserveAspectRatio="xMidYMid meet" version="1.0"><defs><g/><clipPath id="7a8acc8a31"><path d="M 0 27.023438 L 246.5 27.023438 L 246.5 39.746094 L 0 39.746094 Z M 0 27.023438 " clip-rule="nonzero"/></clipPath></defs><g fill="#ffffff" fill-opacity="1"><g transform="translate(2.85715, 47.625014)"><g><path d="M 20.46875 0.613281 C 21.8125 0.613281 29.808594 -5.3125 33.332031 -8.277344 L 33.109375 -8.613281 C 31.375 -7.996094 29.699219 -7.605469 27.90625 -7.605469 C 14.484375 -7.605469 9.394531 -21.195312 9.394531 -29.25 C 9.453125 -33.949219 11.578125 -35.792969 13.703125 -35.792969 C 16.105469 -35.792969 20.972656 -33.890625 24.105469 -22.820312 L 24.441406 -22.707031 L 33.613281 -31.710938 C 31.710938 -35.234375 26.453125 -38.535156 19.574219 -38.535156 C 15.660156 -38.535156 1.453125 -34.953125 1.398438 -19.238281 C 1.34375 -7.101562 9.789062 0.222656 20.46875 0.613281 Z M 20.46875 0.613281 "/></g></g></g><g fill="#ffffff" fill-opacity="1"><g transform="translate(35.347554, 47.625014)"><g><path d="M 18.960938 0.839844 C 21.363281 0.839844 36.296875 -2.515625 36.296875 -18.902344 C 36.296875 -29.808594 28.800781 -38.535156 18.847656 -38.535156 C 16.386719 -38.535156 1.453125 -35.179688 1.453125 -18.792969 C 1.453125 -7.886719 8.835938 0.839844 18.960938 0.839844 Z M 25.503906 -2.460938 C 21.8125 -1.34375 16.667969 -7.382812 12.695312 -17.839844 C 8.726562 -28.300781 9.285156 -34.285156 12.191406 -35.234375 C 15.660156 -36.242188 20.300781 -31.261719 24.214844 -21.476562 C 28.578125 -10.625 28.523438 -3.46875 25.503906 -2.460938 Z M 25.503906 -2.460938 "/></g></g></g><g fill="#ffffff" fill-opacity="1"><g transform="translate(71.361035, 47.625014)"><g><path d="M 21.195312 -37.414062 C 27.628906 -30.761719 32.71875 -20.804688 32.71875 -11.242188 L 32.71875 -7.941406 L 32.382812 -7.941406 L 14.148438 -37.75 L 0.839844 -37.75 L 0.839844 -37.472656 L 4.640625 -31.542969 L 4.640625 0 L 17.617188 0 L 17.617188 -0.335938 C 10.738281 -7.101562 5.929688 -15.324219 5.929688 -26.007812 L 5.929688 -29.699219 L 6.207031 -29.699219 L 24.496094 0.113281 L 33.949219 0.113281 L 33.949219 -37.75 L 21.195312 -37.75 Z M 21.195312 -37.414062 "/></g></g></g><g fill="#ffffff" fill-opacity="1"><g transform="translate(107.374515, 47.625014)"><g><path d="M 34.285156 -37.75 L 1.679688 -37.75 L 1.679688 -21.867188 L 2.011719 -21.867188 C 10.570312 -36.6875 10.625 -36.746094 11.855469 -36.746094 L 12.472656 -36.746094 L 12.472656 -3.46875 L 9.5625 -0.335938 L 9.5625 0 L 26.285156 0 L 26.285156 -0.335938 L 23.378906 -3.46875 L 23.378906 -36.746094 L 24.105469 -36.746094 C 25.054688 -36.746094 25.335938 -36.6875 33.949219 -21.867188 L 34.285156 -21.867188 Z M 34.285156 -37.75 "/></g></g></g><g fill="#ffffff" fill-opacity="1"><g transform="translate(141.374808, 47.625014)"><g><path d="M 11.242188 -37.75 L 11.242188 -37.414062 L 13.644531 -30.648438 L 0.390625 -0.335938 L 0.390625 0 L 14.707031 0 L 14.707031 -0.335938 C 12.191406 -3.1875 10.792969 -7.773438 10.683594 -13.085938 L 19.855469 -13.085938 L 23.210938 -3.242188 L 20.359375 -0.335938 L 20.359375 0 L 35.515625 0 L 35.515625 -0.335938 L 22.761719 -37.75 Z M 10.683594 -14.09375 C 10.792969 -17.671875 11.464844 -21.589844 12.808594 -25.445312 L 14.09375 -29.082031 L 14.429688 -29.082031 L 19.519531 -14.09375 Z M 10.683594 -14.09375 "/></g></g></g><g fill="#ffffff" fill-opacity="1"><g transform="translate(175.710629, 47.625014)"><g><path d="M 20.46875 0.613281 C 21.8125 0.613281 29.808594 -5.3125 33.332031 -8.277344 L 33.109375 -8.613281 C 31.375 -7.996094 29.699219 -7.605469 27.90625 -7.605469 C 14.484375 -7.605469 9.394531 -21.195312 9.394531 -29.25 C 9.453125 -33.949219 11.578125 -35.792969 13.703125 -35.792969 C 16.105469 -35.792969 20.972656 -33.890625 24.105469 -22.820312 L 24.441406 -22.707031 L 33.613281 -31.710938 C 31.710938 -35.234375 26.453125 -38.535156 19.574219 -38.535156 C 15.660156 -38.535156 1.453125 -34.953125 1.398438 -19.238281 C 1.34375 -7.101562 9.789062 0.222656 20.46875 0.613281 Z M 20.46875 0.613281 "/></g></g></g><g fill="#ffffff" fill-opacity="1"><g transform="translate(208.201046, 47.625014)"><g><path d="M 34.285156 -37.75 L 1.679688 -37.75 L 1.679688 -21.867188 L 2.011719 -21.867188 C 10.570312 -36.6875 10.625 -36.746094 11.855469 -36.746094 L 12.472656 -36.746094 L 12.472656 -3.46875 L 9.5625 -0.335938 L 9.5625 0 L 26.285156 0 L 26.285156 -0.335938 L 23.378906 -3.46875 L 23.378906 -36.746094 L 24.105469 -36.746094 C 25.054688 -36.746094 25.335938 -36.6875 33.949219 -21.867188 L 34.285156 -21.867188 Z M 34.285156 -37.75 "/></g></g></g><g clip-path="url(#7a8acc8a31)"><path fill="#000000" d="M 0 27.023438 L 246.652344 27.023438 L 246.652344 39.671875 L 0 39.671875 Z M 0 27.023438 " fill-opacity="1" fill-rule="nonzero"/></g><g fill="#ffffff" fill-opacity="1"><g transform="translate(71.492422, 35.419018)"><g><path d="M 4.851562 0.210938 C 6.964844 0.210938 8.59375 -0.765625 9.035156 -2.300781 L 7.851562 -2.578125 C 7.519531 -1.480469 6.367188 -0.78125 4.867188 -0.78125 C 2.890625 -0.78125 1.628906 -1.75 1.628906 -3.257812 C 1.628906 -4.765625 2.777344 -5.734375 4.582031 -5.734375 C 5.890625 -5.734375 6.910156 -5.117188 7.222656 -4.140625 L 8.382812 -4.480469 C 7.90625 -5.851562 6.414062 -6.726562 4.554688 -6.726562 C 1.980469 -6.726562 0.351562 -5.375 0.351562 -3.257812 C 0.351562 -1.121094 2.097656 0.210938 4.851562 0.210938 Z M 4.851562 0.210938 "/></g></g></g><g fill="#ffffff" fill-opacity="1"><g transform="translate(88.137071, 35.419018)"><g><path d="M 4.886719 0.230469 C 7.59375 0.230469 9.433594 -1.1875 9.433594 -3.257812 C 9.433594 -5.320312 7.59375 -6.753906 4.886719 -6.753906 C 2.191406 -6.753906 0.351562 -5.320312 0.351562 -3.257812 C 0.351562 -1.1875 2.191406 0.230469 4.886719 0.230469 Z M 4.886719 -0.765625 C 2.964844 -0.765625 1.628906 -1.785156 1.628906 -3.257812 C 1.628906 -4.730469 2.964844 -5.75 4.886719 -5.75 C 6.808594 -5.75 8.152344 -4.730469 8.152344 -3.257812 C 8.152344 -1.785156 6.808594 -0.765625 4.886719 -0.765625 Z M 4.886719 -0.765625 "/></g></g></g><g fill="#ffffff" fill-opacity="1"><g transform="translate(105.278487, 35.419018)"><g><path d="M 0.460938 0 L 1.691406 0 L 1.691406 -5.28125 L 1.703125 -5.28125 L 6.378906 0 L 7.980469 0 L 7.980469 -6.523438 L 6.734375 -6.523438 L 6.734375 -1.25 L 6.726562 -1.25 L 2.0625 -6.523438 L 0.460938 -6.523438 Z M 0.460938 0 "/></g></g></g><g fill="#ffffff" fill-opacity="1"><g transform="translate(121.076809, 35.419018)"><g><path d="M 2.980469 0 L 4.261719 0 L 4.261719 -5.523438 L 7.1875 -5.523438 L 7.1875 -6.523438 L 0.0546875 -6.523438 L 0.0546875 -5.523438 L 2.980469 -5.523438 Z M 2.980469 0 "/></g></g></g><g fill="#ffffff" fill-opacity="1"><g transform="translate(135.679229, 35.419018)"><g><path d="M 0.0351562 0 L 1.371094 0 L 2.117188 -1.425781 L 6.203125 -1.425781 L 6.949219 0 L 8.292969 0 L 4.921875 -6.523438 L 3.433594 -6.523438 Z M 2.492188 -2.320312 L 4.160156 -5.59375 L 4.179688 -5.59375 L 5.835938 -2.320312 Z M 2.492188 -2.320312 "/></g></g></g><g fill="#ffffff" fill-opacity="1"><g transform="translate(151.367167, 35.419018)"><g><path d="M 4.851562 0.210938 C 6.964844 0.210938 8.59375 -0.765625 9.035156 -2.300781 L 7.851562 -2.578125 C 7.519531 -1.480469 6.367188 -0.78125 4.867188 -0.78125 C 2.890625 -0.78125 1.628906 -1.75 1.628906 -3.257812 C 1.628906 -4.765625 2.777344 -5.734375 4.582031 -5.734375 C 5.890625 -5.734375 6.910156 -5.117188 7.222656 -4.140625 L 8.382812 -4.480469 C 7.90625 -5.851562 6.414062 -6.726562 4.554688 -6.726562 C 1.980469 -6.726562 0.351562 -5.375 0.351562 -3.257812 C 0.351562 -1.121094 2.097656 0.210938 4.851562 0.210938 Z M 4.851562 0.210938 "/></g></g></g><g fill="#ffffff" fill-opacity="1"><g transform="translate(168.01182, 35.419018)"><g><path d="M 2.980469 0 L 4.261719 0 L 4.261719 -5.523438 L 7.1875 -5.523438 L 7.1875 -6.523438 L 0.0546875 -6.523438 L 0.0546875 -5.523438 L 2.980469 -5.523438 Z M 2.980469 0 "/></g></g></g></svg>