<svg xmlns="http://www.w3.org/2000/svg" xmlns:xlink="http://www.w3.org/1999/xlink" width="329" zoomAndPan="magnify" viewBox="0 0 246.75 68.999997" height="92" preserveAspectRatio="xMidYMid meet" version="1.0"><defs><clipPath id="8cd95c1c4c"><path d="M 0 0.0351562 L 246.5 0.0351562 L 246.5 68.964844 L 0 68.964844 Z M 0 0.0351562 " clip-rule="nonzero"/></clipPath><clipPath id="a872c744e9"><path d="M 3 0.0351562 L 243.75 0.0351562 C 245.40625 0.0351562 246.75 1.378906 246.75 3.035156 L 246.75 66.035156 C 246.75 67.691406 245.40625 69.035156 243.75 69.035156 L 3 69.035156 C 1.34375 69.035156 0 67.691406 0 66.035156 L 0 3.035156 C 0 1.378906 1.34375 0.0351562 3 0.0351562 " clip-rule="nonzero"/></clipPath><clipPath id="d548628c44"><path d="M 104.890625 16.050781 L 141.640625 16.050781 L 141.640625 52.800781 L 104.890625 52.800781 Z M 104.890625 16.050781 " clip-rule="nonzero"/></clipPath></defs><g clip-path="url(#8cd95c1c4c)"><g clip-path="url(#a872c744e9)"><path fill="#ffffff" d="M 0 0.0351562 L 246.78125 0.0351562 L 246.78125 68.925781 L 0 68.925781 Z M 0 0.0351562 " fill-opacity="1" fill-rule="nonzero"/></g></g><g clip-path="url(#d548628c44)"><path fill="#000000" d="M 123.265625 52.800781 C 133.414062 52.800781 141.640625 44.574219 141.640625 34.425781 C 141.640625 24.277344 133.414062 16.050781 123.265625 16.050781 C 113.117188 16.050781 104.890625 24.277344 104.890625 34.425781 C 104.890625 44.574219 113.117188 52.800781 123.265625 52.800781 Z M 114.921875 26.609375 L 123.265625 33.285156 L 131.613281 26.609375 L 131.851562 26.40625 L 114.679688 26.40625 Z M 132.746094 27.984375 L 133.066406 27.714844 L 133.066406 41.554688 C 133.066406 42.046875 132.667969 42.445312 132.175781 42.445312 L 114.355469 42.445312 C 113.863281 42.445312 113.464844 42.046875 113.464844 41.554688 L 113.464844 27.714844 L 113.785156 27.984375 L 113.800781 27.992188 L 122.710938 35.121094 C 123.035156 35.382812 123.496094 35.382812 123.824219 35.121094 L 132.730469 27.992188 Z M 132.746094 27.984375 " fill-opacity="1" fill-rule="evenodd"/></g></svg>