<svg id="visual" viewBox="0 0 960 300" width="960" height="300" xmlns="http://www.w3.org/2000/svg" xmlns:xlink="http://www.w3.org/1999/xlink" version="1.1"><rect x="0" y="0" width="960" height="300" fill="#000"></rect><path d="M0 269L7 242.2C14 215.3 28 161.7 41.8 164C55.7 166.3 69.3 224.7 83.2 234.2C97 243.7 111 204.3 125 199.5C139 194.7 153 224.3 167 231C181 237.7 195 221.3 208.8 216.2C222.7 211 236.3 217 250.2 201.7C264 186.3 278 149.7 292 119.2C306 88.7 320 64.3 334 59.8C348 55.3 362 70.7 375.8 104C389.7 137.3 403.3 188.7 417.2 207.5C431 226.3 445 212.7 459 178.7C473 144.7 487 90.3 501 104.2C515 118 529 200 542.8 231C556.7 262 570.3 242 584.2 211.2C598 180.3 612 138.7 626 136.2C640 133.7 654 170.3 668 191.2C682 212 696 217 709.8 188.7C723.7 160.3 737.3 98.7 751.2 83.2C765 67.7 779 98.3 793 99.2C807 100 821 71 835 86.3C849 101.7 863 161.3 876.8 174.2C890.7 187 904.3 153 918.2 156.3C932 159.7 946 200.3 953 220.7L960 241L960 301L953 301C946 301 932 301 918.2 301C904.3 301 890.7 301 876.8 301C863 301 849 301 835 301C821 301 807 301 793 301C779 301 765 301 751.2 301C737.3 301 723.7 301 709.8 301C696 301 682 301 668 301C654 301 640 301 626 301C612 301 598 301 584.2 301C570.3 301 556.7 301 542.8 301C529 301 515 301 501 301C487 301 473 301 459 301C445 301 431 301 417.2 301C403.3 301 389.7 301 375.8 301C362 301 348 301 334 301C320 301 306 301 292 301C278 301 264 301 250.2 301C236.3 301 222.7 301 208.8 301C195 301 181 301 167 301C153 301 139 301 125 301C111 301 97 301 83.2 301C69.3 301 55.7 301 41.8 301C28 301 14 301 7 301L0 301Z" fill="#fac000"></path><path d="M0 139L7 142.5C14 146 28 153 41.8 154.7C55.7 156.3 69.3 152.7 83.2 143.5C97 134.3 111 119.7 125 141.2C139 162.7 153 220.3 167 246.7C181 273 195 268 208.8 267C222.7 266 236.3 269 250.2 253.5C264 238 278 204 292 172.5C306 141 320 112 334 94.5C348 77 362 71 375.8 92.2C389.7 113.3 403.3 161.7 417.2 167.3C431 173 445 136 459 140.2C473 144.3 487 189.7 501 202C515 214.3 529 193.7 542.8 187.5C556.7 181.3 570.3 189.7 584.2 183.2C598 176.7 612 155.3 626 140.3C640 125.3 654 116.7 668 119C682 121.3 696 134.7 709.8 132.7C723.7 130.7 737.3 113.3 751.2 125.5C765 137.7 779 179.3 793 190C807 200.7 821 180.3 835 160.5C849 140.7 863 121.3 876.8 137.8C890.7 154.3 904.3 206.7 918.2 200.5C932 194.3 946 129.7 953 97.3L960 65L960 301L953 301C946 301 932 301 918.2 301C904.3 301 890.7 301 876.8 301C863 301 849 301 835 301C821 301 807 301 793 301C779 301 765 301 751.2 301C737.3 301 723.7 301 709.8 301C696 301 682 301 668 301C654 301 640 301 626 301C612 301 598 301 584.2 301C570.3 301 556.7 301 542.8 301C529 301 515 301 501 301C487 301 473 301 459 301C445 301 431 301 417.2 301C403.3 301 389.7 301 375.8 301C362 301 348 301 334 301C320 301 306 301 292 301C278 301 264 301 250.2 301C236.3 301 222.7 301 208.8 301C195 301 181 301 167 301C153 301 139 301 125 301C111 301 97 301 83.2 301C69.3 301 55.7 301 41.8 301C28 301 14 301 7 301L0 301Z" fill="#e39200"></path><path d="M0 220L7 216.8C14 213.7 28 207.3 41.8 215.7C55.7 224 69.3 247 83.2 256.8C97 266.7 111 263.3 125 237C139 210.7 153 161.3 167 162.8C181 164.3 195 216.7 208.8 221.3C222.7 226 236.3 183 250.2 159.5C264 136 278 132 292 140.5C306 149 320 170 334 187.7C348 205.3 362 219.7 375.8 223.8C389.7 228 403.3 222 417.2 202.2C431 182.3 445 148.7 459 132C473 115.3 487 115.7 501 114.7C515 113.7 529 111.3 542.8 135.7C556.7 160 570.3 211 584.2 215.8C598 220.7 612 179.3 626 166.3C640 153.3 654 168.7 668 169.3C682 170 696 156 709.8 172.8C723.7 189.7 737.3 237.3 751.2 239.3C765 241.3 779 197.7 793 175.8C807 154 821 154 835 154C849 154 863 154 876.8 147.8C890.7 141.7 904.3 129.3 918.2 142.7C932 156 946 195 953 214.5L960 234L960 301L953 301C946 301 932 301 918.2 301C904.3 301 890.7 301 876.8 301C863 301 849 301 835 301C821 301 807 301 793 301C779 301 765 301 751.2 301C737.3 301 723.7 301 709.8 301C696 301 682 301 668 301C654 301 640 301 626 301C612 301 598 301 584.2 301C570.3 301 556.7 301 542.8 301C529 301 515 301 501 301C487 301 473 301 459 301C445 301 431 301 417.2 301C403.3 301 389.7 301 375.8 301C362 301 348 301 334 301C320 301 306 301 292 301C278 301 264 301 250.2 301C236.3 301 222.7 301 208.8 301C195 301 181 301 167 301C153 301 139 301 125 301C111 301 97 301 83.2 301C69.3 301 55.7 301 41.8 301C28 301 14 301 7 301L0 301Z" fill="#c66700"></path><path d="M0 250L7 249.5C14 249 28 248 41.8 251.5C55.7 255 69.3 263 83.2 259.3C97 255.7 111 240.3 125 238.5C139 236.7 153 248.3 167 246C181 243.7 195 227.3 208.8 218.8C222.7 210.3 236.3 209.7 250.2 214.7C264 219.7 278 230.3 292 230.7C306 231 320 221 334 214.3C348 207.7 362 204.3 375.8 216C389.7 227.7 403.3 254.3 417.2 259.7C431 265 445 249 459 245.8C473 242.7 487 252.3 501 248C515 243.7 529 225.3 542.8 215.5C556.7 205.7 570.3 204.3 584.2 216.5C598 228.7 612 254.3 626 264.7C640 275 654 270 668 254.5C682 239 696 213 709.8 207C723.7 201 737.3 215 751.2 229.8C765 244.7 779 260.3 793 264C807 267.7 821 259.3 835 261.8C849 264.3 863 277.7 876.8 265.5C890.7 253.3 904.3 215.7 918.2 197C932 178.3 946 178.7 953 178.8L960 179L960 301L953 301C946 301 932 301 918.2 301C904.3 301 890.7 301 876.8 301C863 301 849 301 835 301C821 301 807 301 793 301C779 301 765 301 751.2 301C737.3 301 723.7 301 709.8 301C696 301 682 301 668 301C654 301 640 301 626 301C612 301 598 301 584.2 301C570.3 301 556.7 301 542.8 301C529 301 515 301 501 301C487 301 473 301 459 301C445 301 431 301 417.2 301C403.3 301 389.7 301 375.8 301C362 301 348 301 334 301C320 301 306 301 292 301C278 301 264 301 250.2 301C236.3 301 222.7 301 208.8 301C195 301 181 301 167 301C153 301 139 301 125 301C111 301 97 301 83.2 301C69.3 301 55.7 301 41.8 301C28 301 14 301 7 301L0 301Z" fill="#a43e02"></path><path d="M0 287L7 274.7C14 262.3 28 237.7 41.8 232C55.7 226.3 69.3 239.7 83.2 240.3C97 241 111 229 125 232.3C139 235.7 153 254.3 167 264.7C181 275 195 277 208.8 270.8C222.7 264.7 236.3 250.3 250.2 251.2C264 252 278 268 292 268.3C306 268.7 320 253.3 334 254.2C348 255 362 272 375.8 276.2C389.7 280.3 403.3 271.7 417.2 267.7C431 263.7 445 264.3 459 255C473 245.7 487 226.3 501 228.2C515 230 529 253 542.8 254.7C556.7 256.3 570.3 236.7 584.2 237.2C598 237.7 612 258.3 626 267.8C640 277.3 654 275.7 668 268C682 260.3 696 246.7 709.8 248.8C723.7 251 737.3 269 751.2 267.5C765 266 779 245 793 237.8C807 230.7 821 237.3 835 236C849 234.7 863 225.3 876.8 228C890.7 230.7 904.3 245.3 918.2 244.5C932 243.7 946 227.3 953 219.2L960 211L960 301L953 301C946 301 932 301 918.2 301C904.3 301 890.7 301 876.8 301C863 301 849 301 835 301C821 301 807 301 793 301C779 301 765 301 751.2 301C737.3 301 723.7 301 709.8 301C696 301 682 301 668 301C654 301 640 301 626 301C612 301 598 301 584.2 301C570.3 301 556.7 301 542.8 301C529 301 515 301 501 301C487 301 473 301 459 301C445 301 431 301 417.2 301C403.3 301 389.7 301 375.8 301C362 301 348 301 334 301C320 301 306 301 292 301C278 301 264 301 250.2 301C236.3 301 222.7 301 208.8 301C195 301 181 301 167 301C153 301 139 301 125 301C111 301 97 301 83.2 301C69.3 301 55.7 301 41.8 301C28 301 14 301 7 301L0 301Z" fill="#801100"></path></svg>