<svg xmlns="http://www.w3.org/2000/svg" xmlns:xlink="http://www.w3.org/1999/xlink" width="390" zoomAndPan="magnify" viewBox="0 0 292.5 266.250005" height="355" preserveAspectRatio="xMidYMid meet" version="1.0"><defs><g/><clipPath id="ea683111fc"><path d="M 4.769531 121.378906 L 281.582031 121.378906 L 281.582031 142.59375 L 4.769531 142.59375 Z M 4.769531 121.378906 " clip-rule="nonzero"/></clipPath></defs><g fill="#231f20" fill-opacity="1"><g transform="translate(9.136501, 171.054876)"><g><path d="M 43.699219 -64.707031 C 26.472656 -74.933594 19.609375 -78.714844 19.609375 -84.597656 C 19.609375 -87.816406 21.988281 -90.058594 26.609375 -90.058594 C 40.617188 -90.058594 60.085938 -76.753906 75.914062 -55.464844 L 76.753906 -55.464844 L 76.753906 -96.082031 L 76.050781 -96.082031 L 67.089844 -90.476562 C 61.90625 -93.699219 54.0625 -96.359375 44.257812 -96.359375 C 24.789062 -96.359375 8.964844 -89.21875 8.683594 -69.328125 C 8.402344 -54.0625 18.347656 -46.917969 30.113281 -39.917969 L 46.359375 -29.972656 C 59.664062 -22.128906 71.148438 -16.808594 71.148438 -10.503906 C 71.148438 -7.84375 69.328125 -5.042969 63.027344 -5.042969 C 52.382812 -5.042969 23.390625 -13.304688 6.441406 -46.917969 L 5.460938 -46.78125 L 7.84375 -3.640625 C 20.449219 -1.820312 31.933594 2.800781 45.519531 2.800781 C 69.75 2.800781 81.792969 -12.046875 81.792969 -27.03125 C 81.792969 -38.9375 74.089844 -46.5 60.503906 -54.484375 Z M 43.699219 -64.707031 "/></g></g></g><g fill="#231f20" fill-opacity="1"><g transform="translate(91.348874, 171.054876)"><g><path d="M 28.152344 -94.539062 L 28.152344 -93.699219 L 34.175781 -76.753906 L 0.980469 -0.839844 L 0.980469 0 L 36.835938 0 L 36.835938 -0.839844 C 30.53125 -7.984375 27.03125 -19.46875 26.75 -32.773438 L 49.722656 -32.773438 L 58.125 -8.125 L 50.980469 -0.839844 L 50.980469 0 L 88.9375 0 L 88.9375 -0.839844 L 57.003906 -94.539062 Z M 26.75 -35.296875 C 27.03125 -44.257812 28.710938 -54.0625 32.074219 -63.726562 L 35.296875 -72.832031 L 36.136719 -72.832031 L 48.878906 -35.296875 Z M 26.75 -35.296875 "/></g></g></g><g fill="#231f20" fill-opacity="1"><g transform="translate(177.34274, 171.054876)"><g><path d="M 100.984375 -94.539062 L 71.710938 -94.539062 L 54.625 -51.960938 L 53.921875 -51.960938 L 33.613281 -94.820312 L 3.363281 -94.539062 L 3.363281 -93.699219 L 11.203125 -79.695312 L 11.203125 0 L 40.757812 0 L 40.757812 -0.699219 C 23.390625 -14.847656 14.285156 -33.472656 14.285156 -63.585938 L 14.285156 -72.972656 L 14.988281 -72.972656 L 42.578125 -16.667969 L 44.117188 -16.667969 L 67.507812 -74.230469 L 68.347656 -74.230469 L 68.488281 -8.125 L 60.925781 -0.839844 L 60.925781 0 L 95.800781 0 L 95.660156 -86.417969 L 100.984375 -93.699219 Z M 100.984375 -94.539062 "/></g></g></g><g clip-path="url(#ea683111fc)"><path fill="#ffffff" d="M 4.769531 121.378906 L 281.753906 121.378906 L 281.753906 142.417969 L 4.769531 142.417969 Z M 4.769531 121.378906 " fill-opacity="1" fill-rule="nonzero"/></g><g fill="#231f20" fill-opacity="1"><g transform="translate(62.087531, 134.335298)"><g><path d="M 3.167969 0.167969 C 4.699219 0.167969 5.726562 -0.472656 5.726562 -1.414062 C 5.726562 -2.203125 5.097656 -2.628906 3.632812 -2.828125 L 2.480469 -2.988281 C 1.710938 -3.09375 1.386719 -3.285156 1.386719 -3.621094 C 1.386719 -4.070312 1.996094 -4.382812 2.851562 -4.382812 C 3.703125 -4.382812 4.484375 -4.035156 4.867188 -3.542969 L 5.316406 -4.105469 C 4.882812 -4.679688 3.929688 -5.082031 2.84375 -5.082031 C 1.433594 -5.082031 0.4375 -4.507812 0.4375 -3.558594 C 0.4375 -2.792969 0.984375 -2.40625 2.265625 -2.238281 L 3.433594 -2.058594 C 4.375 -1.925781 4.777344 -1.699219 4.777344 -1.332031 C 4.777344 -0.878906 4.152344 -0.546875 3.21875 -0.546875 C 2.074219 -0.546875 1.019531 -1.03125 0.660156 -1.734375 L 0.140625 -1.179688 C 0.601562 -0.386719 1.804688 0.167969 3.167969 0.167969 Z M 3.167969 0.167969 "/></g></g></g><g fill="#231f20" fill-opacity="1"><g transform="translate(73.494247, 134.335298)"><g><path d="M 0.0273438 0 L 1.03125 0 L 1.59375 -1.074219 L 4.671875 -1.074219 L 5.234375 0 L 6.246094 0 L 3.710938 -4.917969 L 2.585938 -4.917969 Z M 1.878906 -1.746094 L 3.132812 -4.214844 L 3.148438 -4.214844 L 4.394531 -1.746094 Z M 1.878906 -1.746094 "/></g></g></g><g fill="#231f20" fill-opacity="1"><g transform="translate(85.309587, 134.335298)"><g><path d="M 0.347656 0 L 1.277344 0 L 1.277344 -3.910156 L 1.289062 -3.910156 L 3.425781 0 L 4.390625 0 L 6.511719 -3.910156 L 6.523438 -3.910156 L 6.523438 0 L 7.453125 0 L 7.453125 -4.917969 L 6.101562 -4.917969 L 3.902344 -0.867188 L 3.898438 -0.867188 L 1.683594 -4.917969 L 0.347656 -4.917969 Z M 0.347656 0 "/></g></g></g><g fill="#231f20" fill-opacity="1"><g transform="translate(98.648647, 134.335298)"><g><path d="M 0.0273438 0 L 1.03125 0 L 1.59375 -1.074219 L 4.671875 -1.074219 L 5.234375 0 L 6.246094 0 L 3.710938 -4.917969 L 2.585938 -4.917969 Z M 1.878906 -1.746094 L 3.132812 -4.214844 L 3.148438 -4.214844 L 4.394531 -1.746094 Z M 1.878906 -1.746094 "/></g></g></g><g fill="#231f20" fill-opacity="1"><g transform="translate(110.463986, 134.335298)"><g><path d="M 0.347656 0 L 5.304688 0 L 5.304688 -0.699219 L 1.28125 -0.699219 L 1.28125 -2.203125 L 4.957031 -2.203125 L 4.957031 -2.851562 L 1.28125 -2.851562 L 1.28125 -4.207031 L 5.234375 -4.207031 L 5.234375 -4.917969 L 0.347656 -4.917969 Z M 0.347656 0 "/></g></g></g><g fill="#231f20" fill-opacity="1"><g transform="translate(121.448212, 134.335298)"><g><path d="M 0.347656 0 L 4.457031 0 L 4.457031 -0.761719 L 1.308594 -0.761719 L 1.308594 -4.917969 L 0.347656 -4.917969 Z M 0.347656 0 "/></g></g></g><g fill="#231f20" fill-opacity="1"><g transform="translate(131.504364, 134.335298)"><g/></g></g><g fill="#231f20" fill-opacity="1"><g transform="translate(139.053313, 134.335298)"><g><path d="M 0.347656 0 L 1.277344 0 L 1.277344 -3.910156 L 1.289062 -3.910156 L 3.425781 0 L 4.390625 0 L 6.511719 -3.910156 L 6.523438 -3.910156 L 6.523438 0 L 7.453125 0 L 7.453125 -4.917969 L 6.101562 -4.917969 L 3.902344 -0.867188 L 3.898438 -0.867188 L 1.683594 -4.917969 L 0.347656 -4.917969 Z M 0.347656 0 "/></g></g></g><g fill="#231f20" fill-opacity="1"><g transform="translate(152.392373, 134.335298)"><g><path d="M 3.113281 0.160156 C 4.839844 0.160156 5.957031 -0.699219 5.957031 -2.238281 L 5.957031 -4.917969 L 4.992188 -4.917969 L 4.992188 -2.265625 C 4.992188 -1.164062 4.25 -0.609375 3.121094 -0.609375 C 1.996094 -0.609375 1.25 -1.164062 1.25 -2.265625 L 1.25 -4.917969 L 0.277344 -4.917969 L 0.277344 -2.238281 C 0.277344 -0.699219 1.394531 0.160156 3.113281 0.160156 Z M 3.113281 0.160156 "/></g></g></g><g fill="#231f20" fill-opacity="1"><g transform="translate(164.166162, 134.335298)"><g><path d="M 3.167969 0.167969 C 4.699219 0.167969 5.726562 -0.472656 5.726562 -1.414062 C 5.726562 -2.203125 5.097656 -2.628906 3.632812 -2.828125 L 2.480469 -2.988281 C 1.710938 -3.09375 1.386719 -3.285156 1.386719 -3.621094 C 1.386719 -4.070312 1.996094 -4.382812 2.851562 -4.382812 C 3.703125 -4.382812 4.484375 -4.035156 4.867188 -3.542969 L 5.316406 -4.105469 C 4.882812 -4.679688 3.929688 -5.082031 2.84375 -5.082031 C 1.433594 -5.082031 0.4375 -4.507812 0.4375 -3.558594 C 0.4375 -2.792969 0.984375 -2.40625 2.265625 -2.238281 L 3.433594 -2.058594 C 4.375 -1.925781 4.777344 -1.699219 4.777344 -1.332031 C 4.777344 -0.878906 4.152344 -0.546875 3.21875 -0.546875 C 2.074219 -0.546875 1.019531 -1.03125 0.660156 -1.734375 L 0.140625 -1.179688 C 0.601562 -0.386719 1.804688 0.167969 3.167969 0.167969 Z M 3.167969 0.167969 "/></g></g></g><g fill="#231f20" fill-opacity="1"><g transform="translate(175.572878, 134.335298)"><g><path d="M 3.523438 0.160156 C 4.699219 0.160156 5.671875 -0.292969 6.171875 -1.003906 L 6.179688 -1.003906 L 6.246094 0 L 7.023438 0 L 7.023438 -2.746094 L 2.53125 -2.746094 L 2.53125 -2.128906 L 6.09375 -2.128906 C 6.074219 -1.234375 5.046875 -0.554688 3.75 -0.554688 C 2.28125 -0.554688 1.226562 -1.339844 1.226562 -2.441406 C 1.226562 -3.558594 2.199219 -4.339844 3.5625 -4.332031 C 4.453125 -4.332031 5.285156 -3.9375 5.476562 -3.375 L 6.371094 -3.578125 C 6.117188 -4.457031 4.917969 -5.070312 3.5625 -5.070312 C 1.628906 -5.070312 0.261719 -3.972656 0.261719 -2.417969 C 0.261719 -0.914062 1.617188 0.160156 3.523438 0.160156 Z M 3.523438 0.160156 "/></g></g></g><g fill="#231f20" fill-opacity="1"><g transform="translate(188.378638, 134.335298)"><g><path d="M 5.484375 0.140625 C 5.867188 0.140625 6.21875 -0.046875 6.425781 -0.304688 L 6.136719 -0.761719 C 6.03125 -0.601562 5.878906 -0.492188 5.726562 -0.492188 C 5.539062 -0.492188 5.441406 -0.625 5.359375 -0.789062 L 5.011719 -1.492188 C 4.894531 -1.753906 4.734375 -1.957031 4.5 -2.082031 L 4.5 -2.085938 C 5.402344 -2.183594 5.957031 -2.710938 5.957031 -3.445312 C 5.957031 -4.355469 5.242188 -4.917969 4.089844 -4.917969 L 0.347656 -4.917969 L 0.347656 0 L 1.308594 0 L 1.308594 -1.90625 L 3.3125 -1.90625 C 3.660156 -1.90625 3.953125 -1.691406 4.117188 -1.34375 L 4.492188 -0.546875 C 4.679688 -0.179688 4.964844 0.140625 5.484375 0.140625 Z M 1.308594 -2.574219 L 1.308594 -4.230469 L 3.890625 -4.230469 C 4.5625 -4.230469 4.992188 -3.902344 4.992188 -3.390625 C 4.992188 -2.898438 4.5625 -2.574219 3.890625 -2.574219 Z M 1.308594 -2.574219 "/></g></g></g><g fill="#231f20" fill-opacity="1"><g transform="translate(200.346354, 134.335298)"><g><path d="M 3.683594 0.171875 C 5.71875 0.171875 7.105469 -0.894531 7.105469 -2.453125 C 7.105469 -4.007812 5.71875 -5.089844 3.683594 -5.089844 C 1.648438 -5.089844 0.261719 -4.007812 0.261719 -2.453125 C 0.261719 -0.894531 1.648438 0.171875 3.683594 0.171875 Z M 3.683594 -0.574219 C 2.234375 -0.574219 1.226562 -1.34375 1.226562 -2.453125 C 1.226562 -3.5625 2.234375 -4.332031 3.683594 -4.332031 C 5.132812 -4.332031 6.144531 -3.5625 6.144531 -2.453125 C 6.144531 -1.34375 5.132812 -0.574219 3.683594 -0.574219 Z M 3.683594 -0.574219 "/></g></g></g><g fill="#231f20" fill-opacity="1"><g transform="translate(213.25601, 134.335298)"><g><path d="M 2.542969 0 L 3.621094 0 L 6.171875 -4.917969 L 5.136719 -4.917969 L 3.09375 -0.902344 L 3.078125 -0.902344 L 1.027344 -4.917969 L 0 -4.917969 Z M 2.542969 0 "/></g></g></g><g fill="#231f20" fill-opacity="1"><g transform="translate(224.967461, 134.335298)"><g><path d="M 0.347656 0 L 5.304688 0 L 5.304688 -0.699219 L 1.28125 -0.699219 L 1.28125 -2.203125 L 4.957031 -2.203125 L 4.957031 -2.851562 L 1.28125 -2.851562 L 1.28125 -4.207031 L 5.234375 -4.207031 L 5.234375 -4.917969 L 0.347656 -4.917969 Z M 0.347656 0 "/></g></g></g><g fill="#231f20" fill-opacity="1"><g transform="translate(15.84539, 220.444897)"><g><path d="M 0.347656 0 L 1.308594 0 L 1.308594 -2.058594 L 4.644531 -2.058594 L 4.644531 -2.730469 L 1.308594 -2.730469 L 1.308594 -4.15625 L 5.050781 -4.15625 L 5.050781 -4.914062 L 0.347656 -4.914062 Z M 0.347656 0 "/></g></g></g><g fill="#231f20" fill-opacity="1"><g transform="translate(26.555421, 220.444897)"><g><path d="M 3.113281 0.160156 C 4.835938 0.160156 5.953125 -0.699219 5.953125 -2.238281 L 5.953125 -4.914062 L 4.988281 -4.914062 L 4.988281 -2.265625 C 4.988281 -1.164062 4.246094 -0.609375 3.117188 -0.609375 C 1.996094 -0.609375 1.246094 -1.164062 1.246094 -2.265625 L 1.246094 -4.914062 L 0.277344 -4.914062 L 0.277344 -2.238281 C 0.277344 -0.699219 1.394531 0.160156 3.113281 0.160156 Z M 3.113281 0.160156 "/></g></g></g><g fill="#231f20" fill-opacity="1"><g transform="translate(38.332646, 220.444897)"><g><path d="M 0.347656 0 L 4.457031 0 L 4.457031 -0.761719 L 1.308594 -0.761719 L 1.308594 -4.914062 L 0.347656 -4.914062 Z M 0.347656 0 "/></g></g></g><g fill="#231f20" fill-opacity="1"><g transform="translate(48.391278, 220.444897)"><g><path d="M 0.347656 0 L 4.457031 0 L 4.457031 -0.761719 L 1.308594 -0.761719 L 1.308594 -4.914062 L 0.347656 -4.914062 Z M 0.347656 0 "/></g></g></g><g fill="#231f20" fill-opacity="1"><g transform="translate(58.44991, 220.444897)"><g><path d="M 0.324219 -1.546875 L 3.292969 -1.546875 L 3.292969 -2.140625 L 0.324219 -2.140625 Z M 0.324219 -1.546875 "/></g></g></g><g fill="#231f20" fill-opacity="1"><g transform="translate(67.607676, 220.444897)"><g><path d="M 3.167969 0.167969 C 4.699219 0.167969 5.722656 -0.472656 5.722656 -1.414062 C 5.722656 -2.203125 5.09375 -2.625 3.632812 -2.828125 L 2.480469 -2.988281 C 1.710938 -3.089844 1.386719 -3.285156 1.386719 -3.617188 C 1.386719 -4.066406 1.996094 -4.378906 2.847656 -4.378906 C 3.699219 -4.378906 4.484375 -4.03125 4.863281 -3.542969 L 5.316406 -4.101562 C 4.878906 -4.675781 3.929688 -5.078125 2.839844 -5.078125 C 1.433594 -5.078125 0.4375 -4.503906 0.4375 -3.554688 C 0.4375 -2.792969 0.984375 -2.40625 2.265625 -2.238281 L 3.429688 -2.058594 C 4.371094 -1.925781 4.773438 -1.699219 4.773438 -1.332031 C 4.773438 -0.878906 4.152344 -0.546875 3.214844 -0.546875 C 2.070312 -0.546875 1.019531 -1.03125 0.660156 -1.734375 L 0.136719 -1.179688 C 0.601562 -0.386719 1.800781 0.167969 3.167969 0.167969 Z M 3.167969 0.167969 "/></g></g></g><g fill="#231f20" fill-opacity="1"><g transform="translate(79.01762, 220.444897)"><g><path d="M 2.246094 0 L 3.207031 0 L 3.207031 -4.15625 L 5.414062 -4.15625 L 5.414062 -4.914062 L 0.0429688 -4.914062 L 0.0429688 -4.15625 L 2.246094 -4.15625 Z M 2.246094 0 "/></g></g></g><g fill="#231f20" fill-opacity="1"><g transform="translate(90.018707, 220.444897)"><g><path d="M 0.0273438 0 L 1.03125 0 L 1.59375 -1.074219 L 4.671875 -1.074219 L 5.230469 0 L 6.242188 0 L 3.707031 -4.914062 L 2.585938 -4.914062 Z M 1.878906 -1.746094 L 3.132812 -4.214844 L 3.144531 -4.214844 L 4.394531 -1.746094 Z M 1.878906 -1.746094 "/></g></g></g><g fill="#231f20" fill-opacity="1"><g transform="translate(101.837508, 220.444897)"><g><path d="M 3.652344 0.160156 C 5.246094 0.160156 6.472656 -0.574219 6.804688 -1.734375 L 5.910156 -1.941406 C 5.660156 -1.117188 4.796875 -0.589844 3.664062 -0.589844 C 2.175781 -0.589844 1.226562 -1.316406 1.226562 -2.453125 C 1.226562 -3.589844 2.09375 -4.316406 3.449219 -4.316406 C 4.433594 -4.316406 5.203125 -3.851562 5.441406 -3.117188 L 6.3125 -3.375 C 5.953125 -4.40625 4.832031 -5.066406 3.429688 -5.066406 C 1.488281 -5.066406 0.261719 -4.046875 0.261719 -2.453125 C 0.261719 -0.84375 1.578125 0.160156 3.652344 0.160156 Z M 3.652344 0.160156 "/></g></g></g><g fill="#231f20" fill-opacity="1"><g transform="translate(114.377012, 220.444897)"><g><path d="M 0.347656 0 L 1.308594 0 L 1.308594 -1.664062 L 2.15625 -2.300781 L 4.402344 0 L 5.632812 0 L 2.839844 -2.839844 L 5.578125 -4.914062 L 4.269531 -4.914062 L 1.316406 -2.675781 L 1.308594 -2.675781 L 1.308594 -4.914062 L 0.347656 -4.914062 Z M 0.347656 0 "/></g></g></g><g fill="#231f20" fill-opacity="1"><g transform="translate(125.558275, 220.444897)"><g/></g></g><g fill="#231f20" fill-opacity="1"><g transform="translate(133.108338, 220.444897)"><g><path d="M 2.164062 0 L 3.332031 0 L 5.066406 -4.089844 L 5.074219 -4.089844 L 6.796875 0 L 7.96875 0 L 10.132812 -4.914062 L 9.132812 -4.914062 L 7.375 -0.816406 L 7.359375 -0.816406 L 5.675781 -4.914062 L 4.457031 -4.914062 L 2.777344 -0.816406 L 2.773438 -0.816406 L 0.996094 -4.914062 L -0.0078125 -4.914062 Z M 2.164062 0 "/></g></g></g><g fill="#231f20" fill-opacity="1"><g transform="translate(148.787033, 220.444897)"><g><path d="M 0.347656 0 L 5.300781 0 L 5.300781 -0.699219 L 1.28125 -0.699219 L 1.28125 -2.203125 L 4.953125 -2.203125 L 4.953125 -2.847656 L 1.28125 -2.847656 L 1.28125 -4.207031 L 5.230469 -4.207031 L 5.230469 -4.914062 L 0.347656 -4.914062 Z M 0.347656 0 "/></g></g></g><g fill="#231f20" fill-opacity="1"><g transform="translate(159.774259, 220.444897)"><g><path d="M 0.347656 0 L 4.117188 0 C 5.203125 0 5.910156 -0.539062 5.910156 -1.363281 C 5.910156 -1.925781 5.542969 -2.382812 4.984375 -2.515625 L 4.984375 -2.523438 C 5.460938 -2.667969 5.773438 -3.078125 5.773438 -3.574219 C 5.773438 -4.386719 5.105469 -4.914062 4.089844 -4.914062 L 0.347656 -4.914062 Z M 1.308594 -2.828125 L 1.308594 -4.261719 L 3.851562 -4.261719 C 4.433594 -4.261719 4.808594 -3.984375 4.808594 -3.542969 C 4.808594 -3.105469 4.433594 -2.828125 3.859375 -2.828125 Z M 1.308594 -0.652344 L 1.308594 -2.222656 L 3.867188 -2.222656 C 4.519531 -2.222656 4.949219 -1.90625 4.949219 -1.441406 C 4.949219 -0.964844 4.519531 -0.652344 3.867188 -0.652344 Z M 1.308594 -0.652344 "/></g></g></g><g fill="#231f20" fill-opacity="1"><g transform="translate(171.378235, 220.444897)"><g/></g></g><g fill="#231f20" fill-opacity="1"><g transform="translate(178.928298, 220.444897)"><g><path d="M 0.347656 0 L 3.429688 0 C 5.289062 0 6.320312 -0.878906 6.320312 -2.453125 C 6.320312 -4.03125 5.289062 -4.914062 3.429688 -4.914062 L 0.347656 -4.914062 Z M 1.296875 -0.726562 L 1.296875 -4.171875 L 3.347656 -4.171875 C 4.648438 -4.171875 5.378906 -3.5625 5.378906 -2.453125 C 5.378906 -1.34375 4.648438 -0.726562 3.347656 -0.726562 Z M 1.296875 -0.726562 "/></g></g></g><g fill="#231f20" fill-opacity="1"><g transform="translate(191.058944, 220.444897)"><g><path d="M 0.347656 0 L 5.300781 0 L 5.300781 -0.699219 L 1.28125 -0.699219 L 1.28125 -2.203125 L 4.953125 -2.203125 L 4.953125 -2.847656 L 1.28125 -2.847656 L 1.28125 -4.207031 L 5.230469 -4.207031 L 5.230469 -4.914062 L 0.347656 -4.914062 Z M 0.347656 0 "/></g></g></g><g fill="#231f20" fill-opacity="1"><g transform="translate(202.04617, 220.444897)"><g><path d="M 2.542969 0 L 3.617188 0 L 6.167969 -4.914062 L 5.136719 -4.914062 L 3.089844 -0.902344 L 3.078125 -0.902344 L 1.027344 -4.914062 L 0 -4.914062 Z M 2.542969 0 "/></g></g></g><g fill="#231f20" fill-opacity="1"><g transform="translate(213.761032, 220.444897)"><g><path d="M 0.347656 0 L 5.300781 0 L 5.300781 -0.699219 L 1.28125 -0.699219 L 1.28125 -2.203125 L 4.953125 -2.203125 L 4.953125 -2.847656 L 1.28125 -2.847656 L 1.28125 -4.207031 L 5.230469 -4.207031 L 5.230469 -4.914062 L 0.347656 -4.914062 Z M 0.347656 0 "/></g></g></g><g fill="#231f20" fill-opacity="1"><g transform="translate(224.748258, 220.444897)"><g><path d="M 0.347656 0 L 4.457031 0 L 4.457031 -0.761719 L 1.308594 -0.761719 L 1.308594 -4.914062 L 0.347656 -4.914062 Z M 0.347656 0 "/></g></g></g><g fill="#231f20" fill-opacity="1"><g transform="translate(234.806884, 220.444897)"><g><path d="M 3.679688 0.171875 C 5.71875 0.171875 7.101562 -0.894531 7.101562 -2.453125 C 7.101562 -4.003906 5.71875 -5.085938 3.679688 -5.085938 C 1.648438 -5.085938 0.261719 -4.003906 0.261719 -2.453125 C 0.261719 -0.894531 1.648438 0.171875 3.679688 0.171875 Z M 3.679688 -0.574219 C 2.230469 -0.574219 1.226562 -1.34375 1.226562 -2.453125 C 1.226562 -3.5625 2.230469 -4.332031 3.679688 -4.332031 C 5.128906 -4.332031 6.140625 -3.5625 6.140625 -2.453125 C 6.140625 -1.34375 5.128906 -0.574219 3.679688 -0.574219 Z M 3.679688 -0.574219 "/></g></g></g><g fill="#231f20" fill-opacity="1"><g transform="translate(247.720585, 220.444897)"><g><path d="M 0.347656 0 L 1.308594 0 L 1.308594 -1.699219 L 3.910156 -1.699219 C 5.164062 -1.699219 5.863281 -2.285156 5.871094 -3.292969 C 5.871094 -4.316406 5.167969 -4.914062 3.914062 -4.914062 L 0.347656 -4.914062 Z M 1.308594 -2.363281 L 1.308594 -4.242188 L 3.671875 -4.242188 C 4.460938 -4.242188 4.90625 -3.894531 4.90625 -3.296875 C 4.90625 -2.710938 4.460938 -2.363281 3.671875 -2.363281 Z M 1.308594 -2.363281 "/></g></g></g><g fill="#231f20" fill-opacity="1"><g transform="translate(259.248336, 220.444897)"><g><path d="M 0.347656 0 L 5.300781 0 L 5.300781 -0.699219 L 1.28125 -0.699219 L 1.28125 -2.203125 L 4.953125 -2.203125 L 4.953125 -2.847656 L 1.28125 -2.847656 L 1.28125 -4.207031 L 5.230469 -4.207031 L 5.230469 -4.914062 L 0.347656 -4.914062 Z M 0.347656 0 "/></g></g></g><g fill="#231f20" fill-opacity="1"><g transform="translate(270.235562, 220.444897)"><g><path d="M 5.480469 0.136719 C 5.863281 0.136719 6.214844 -0.046875 6.425781 -0.304688 L 6.132812 -0.761719 C 6.027344 -0.601562 5.875 -0.492188 5.722656 -0.492188 C 5.535156 -0.492188 5.441406 -0.625 5.355469 -0.789062 L 5.011719 -1.488281 C 4.890625 -1.753906 4.734375 -1.953125 4.496094 -2.078125 L 4.496094 -2.085938 C 5.398438 -2.183594 5.953125 -2.710938 5.953125 -3.445312 C 5.953125 -4.351562 5.238281 -4.914062 4.089844 -4.914062 L 0.347656 -4.914062 L 0.347656 0 L 1.308594 0 L 1.308594 -1.90625 L 3.3125 -1.90625 C 3.660156 -1.90625 3.949219 -1.691406 4.117188 -1.34375 L 4.492188 -0.546875 C 4.675781 -0.179688 4.960938 0.136719 5.480469 0.136719 Z M 1.308594 -2.570312 L 1.308594 -4.226562 L 3.886719 -4.226562 C 4.558594 -4.226562 4.988281 -3.902344 4.988281 -3.390625 C 4.988281 -2.898438 4.558594 -2.570312 3.886719 -2.570312 Z M 1.308594 -2.570312 "/></g></g></g></svg>