<svg xmlns="http://www.w3.org/2000/svg" xmlns:xlink="http://www.w3.org/1999/xlink" width="329" zoomAndPan="magnify" viewBox="0 0 246.75 68.999997" height="92" preserveAspectRatio="xMidYMid meet" version="1.0"><defs><g/><clipPath id="7aa18214af"><path d="M 0 0.0351562 L 246.5 0.0351562 L 246.5 68.964844 L 0 68.964844 Z M 0 0.0351562 " clip-rule="nonzero"/></clipPath><clipPath id="a07963e4ea"><path d="M 3 0.0351562 L 243.75 0.0351562 C 245.40625 0.0351562 246.75 1.378906 246.75 3.035156 L 246.75 66.035156 C 246.75 67.691406 245.40625 69.035156 243.75 69.035156 L 3 69.035156 C 1.34375 69.035156 0 67.691406 0 66.035156 L 0 3.035156 C 0 1.378906 1.34375 0.0351562 3 0.0351562 " clip-rule="nonzero"/></clipPath><clipPath id="b57444bca4"><path d="M 108.300781 4.386719 L 138.300781 4.386719 L 138.300781 34.386719 L 108.300781 34.386719 Z M 108.300781 4.386719 " clip-rule="nonzero"/></clipPath></defs><g clip-path="url(#7aa18214af)"><g clip-path="url(#a07963e4ea)"><path fill="#ffffff" d="M 0 0.0351562 L 246.78125 0.0351562 L 246.78125 68.925781 L 0 68.925781 Z M 0 0.0351562 " fill-opacity="1" fill-rule="nonzero"/></g></g><g clip-path="url(#b57444bca4)"><path fill="#ffffff" d="M 123.296875 4.390625 C 115.03125 4.390625 108.296875 11.125 108.296875 19.390625 C 108.296875 27.652344 115.03125 34.386719 123.296875 34.386719 C 131.558594 34.386719 138.296875 27.652344 138.296875 19.390625 C 138.296875 11.125 131.558594 4.390625 123.296875 4.390625 Z M 123.296875 4.390625 " fill-opacity="1" fill-rule="nonzero"/></g><path fill="#000000" d="M 136.59375 19.386719 C 136.59375 26.734375 130.640625 32.6875 123.296875 32.6875 C 115.949219 32.6875 109.996094 26.734375 109.996094 19.386719 C 109.996094 12.042969 115.949219 6.089844 123.296875 6.089844 C 130.640625 6.089844 136.59375 12.042969 136.59375 19.386719 Z M 136.59375 19.386719 " fill-opacity="1" fill-rule="nonzero"/><path fill="#ffffff" d="M 127.488281 28.777344 C 128.320312 28.515625 129.230469 28.164062 129.535156 27.984375 C 129.742188 27.863281 129.769531 27.820312 129.699219 27.75 C 129.183594 27.253906 125.558594 24.078125 125.527344 24.097656 C 125.503906 24.113281 125.445312 24.339844 125.398438 24.601562 C 125.300781 25.117188 125.210938 25.238281 124.910156 25.238281 C 124.660156 25.238281 124.496094 25.097656 124.261719 24.6875 C 124.15625 24.507812 123.988281 24.253906 123.886719 24.125 C 123.789062 23.996094 123.582031 23.671875 123.433594 23.40625 C 123.285156 23.140625 123.023438 22.703125 122.855469 22.433594 C 122.464844 21.8125 122.007812 21.0625 121.835938 20.746094 C 121.765625 20.613281 121.585938 20.34375 121.4375 20.144531 C 121.289062 19.945312 121.101562 19.652344 121.023438 19.492188 C 120.941406 19.332031 120.703125 18.949219 120.5 18.644531 C 120.292969 18.339844 120.046875 17.933594 119.953125 17.742188 C 119.855469 17.554688 119.679688 17.246094 119.558594 17.058594 C 119.285156 16.625 118.964844 15.984375 118.90625 15.757812 C 118.875 15.617188 118.902344 15.542969 119.046875 15.410156 C 119.238281 15.230469 119.25 15.230469 119.863281 15.414062 C 120.070312 15.476562 120.253906 15.511719 120.269531 15.496094 C 120.300781 15.46875 118.898438 10.03125 118.847656 9.980469 C 118.8125 9.945312 117.167969 11.324219 117.167969 11.390625 C 117.167969 11.421875 117.023438 11.589844 116.851562 11.761719 C 116.675781 11.9375 116.425781 12.246094 116.300781 12.449219 C 116.097656 12.769531 116.054688 12.90625 115.992188 13.460938 C 115.792969 15.230469 116.261719 17.839844 117.144531 19.917969 C 117.621094 21.035156 117.90625 21.59375 118.246094 22.074219 C 118.398438 22.289062 118.605469 22.625 118.703125 22.824219 C 119.234375 23.886719 120.902344 25.820312 122.066406 26.722656 C 122.871094 27.347656 124.578125 28.460938 124.972656 28.621094 C 126.125 29.089844 126.429688 29.105469 127.488281 28.777344 Z M 130.429688 26.773438 C 130.679688 26.160156 130.6875 26.125 130.578125 26.019531 C 130.484375 25.933594 127.558594 23.382812 127.152344 23.039062 C 127.058594 22.957031 126.964844 22.988281 126.375 23.28125 C 125.8125 23.566406 125.722656 23.632812 125.796875 23.707031 C 126.078125 23.972656 130.132812 27.453125 130.148438 27.4375 C 130.160156 27.425781 130.285156 27.128906 130.429688 26.773438 Z M 121.433594 15.027344 C 121.710938 14.816406 121.9375 14.640625 121.933594 14.632812 C 121.859375 14.285156 120.765625 10.003906 120.746094 9.984375 C 120.707031 9.945312 119.3125 9.75 119.28125 9.777344 C 119.265625 9.796875 119.648438 11.28125 120.703125 15.265625 C 120.777344 15.546875 120.730469 15.5625 121.433594 15.027344 Z M 121.433594 15.027344 " fill-opacity="1" fill-rule="nonzero"/><g fill="#000000" fill-opacity="1"><g transform="translate(86.494091, 49.597463)"><g><path d="M 0.257812 0 L 5.992188 0 L 5.992188 -0.808594 L 1.390625 -0.808594 C 1.390625 -1.601562 1.769531 -1.960938 2.855469 -2.175781 L 3.929688 -2.382812 C 5.257812 -2.625 5.792969 -3.089844 5.792969 -4.007812 C 5.792969 -5.152344 4.824219 -5.847656 3.390625 -5.847656 C 2.230469 -5.847656 1.078125 -5.351562 0.449219 -4.566406 L 0.96875 -3.871094 C 1.511719 -4.550781 2.425781 -5 3.273438 -5 C 4.128906 -5 4.695312 -4.601562 4.695312 -4.023438 C 4.695312 -3.527344 4.382812 -3.28125 3.585938 -3.128906 L 2.550781 -2.9375 C 0.878906 -2.617188 0.265625 -2.007812 0.257812 -0.617188 Z M 0.257812 0 "/></g></g></g><g fill="#000000" fill-opacity="1"><g transform="translate(92.734151, 49.597463)"><g><path d="M 3.246094 0.183594 C 5.039062 0.183594 6.160156 -0.59375 6.160156 -1.816406 C 6.160156 -3.015625 5.167969 -3.761719 3.574219 -3.761719 C 2.976562 -3.761719 2.367188 -3.609375 2 -3.351562 L 2.105469 -4.878906 L 5.417969 -4.878906 L 5.417969 -5.671875 L 1.183594 -5.671875 L 0.984375 -2.71875 L 1.847656 -2.542969 C 2.136719 -2.839844 2.726562 -3.023438 3.359375 -3.023438 C 4.40625 -3.023438 5.054688 -2.550781 5.054688 -1.800781 C 5.054688 -1.078125 4.359375 -0.632812 3.246094 -0.632812 C 2.128906 -0.632812 1.359375 -1.160156 1.28125 -1.992188 L 0.214844 -1.753906 C 0.375 -0.558594 1.550781 0.183594 3.246094 0.183594 Z M 3.246094 0.183594 "/></g></g></g><g fill="#000000" fill-opacity="1"><g transform="translate(99.134216, 49.597463)"><g><path d="M 4.167969 0 L 5.265625 0 L 5.265625 -1.222656 L 5.984375 -1.222656 L 5.984375 -2.015625 L 5.265625 -2.015625 L 5.265625 -5.671875 L 3.839844 -5.671875 L 0.136719 -1.839844 L 0.136719 -1.222656 L 4.167969 -1.222656 Z M 1.480469 -2.015625 L 4.160156 -4.769531 L 4.167969 -4.769531 L 4.167969 -2.015625 Z M 1.480469 -2.015625 "/></g></g></g><g fill="#000000" fill-opacity="1"><g transform="translate(105.374276, 49.597463)"><g><path d="M 0.375 -1.785156 L 3.800781 -1.785156 L 3.800781 -2.472656 L 0.375 -2.472656 Z M 0.375 -1.785156 "/></g></g></g><g fill="#000000" fill-opacity="1"><g transform="translate(109.542319, 49.597463)"><g><path d="M 0.257812 0 L 5.992188 0 L 5.992188 -0.808594 L 1.390625 -0.808594 C 1.390625 -1.601562 1.769531 -1.960938 2.855469 -2.175781 L 3.929688 -2.382812 C 5.257812 -2.625 5.792969 -3.089844 5.792969 -4.007812 C 5.792969 -5.152344 4.824219 -5.847656 3.390625 -5.847656 C 2.230469 -5.847656 1.078125 -5.351562 0.449219 -4.566406 L 0.96875 -3.871094 C 1.511719 -4.550781 2.425781 -5 3.273438 -5 C 4.128906 -5 4.695312 -4.601562 4.695312 -4.023438 C 4.695312 -3.527344 4.382812 -3.28125 3.585938 -3.128906 L 2.550781 -2.9375 C 0.878906 -2.617188 0.265625 -2.007812 0.257812 -0.617188 Z M 0.257812 0 "/></g></g></g><g fill="#000000" fill-opacity="1"><g transform="translate(115.782379, 49.597463)"><g><path d="M 0.257812 0 L 5.992188 0 L 5.992188 -0.808594 L 1.390625 -0.808594 C 1.390625 -1.601562 1.769531 -1.960938 2.855469 -2.175781 L 3.929688 -2.382812 C 5.257812 -2.625 5.792969 -3.089844 5.792969 -4.007812 C 5.792969 -5.152344 4.824219 -5.847656 3.390625 -5.847656 C 2.230469 -5.847656 1.078125 -5.351562 0.449219 -4.566406 L 0.96875 -3.871094 C 1.511719 -4.550781 2.425781 -5 3.273438 -5 C 4.128906 -5 4.695312 -4.601562 4.695312 -4.023438 C 4.695312 -3.527344 4.382812 -3.28125 3.585938 -3.128906 L 2.550781 -2.9375 C 0.878906 -2.617188 0.265625 -2.007812 0.257812 -0.617188 Z M 0.257812 0 "/></g></g></g><g fill="#000000" fill-opacity="1"><g transform="translate(122.022439, 49.597463)"><g><path d="M 3.425781 -5.847656 C 1.289062 -5.847656 0.375 -4.535156 0.375 -2.34375 C 0.375 -0.609375 1.585938 0.183594 3.433594 0.183594 C 5.230469 0.183594 6.503906 -0.625 6.503906 -1.800781 C 6.503906 -2.929688 5.390625 -3.703125 3.65625 -3.703125 C 2.519531 -3.703125 1.9375 -3.433594 1.425781 -2.902344 C 1.441406 -4.289062 2.246094 -5.046875 3.488281 -5.046875 C 4.609375 -5.046875 5.335938 -4.550781 5.777344 -3.695312 L 6.375 -4.28125 C 5.816406 -5.246094 4.839844 -5.847656 3.425781 -5.847656 Z M 3.464844 -2.976562 C 4.59375 -2.976562 5.390625 -2.496094 5.390625 -1.808594 C 5.390625 -1.105469 4.601562 -0.609375 3.488281 -0.609375 C 2.320312 -0.609375 1.496094 -1.097656 1.496094 -1.808594 C 1.496094 -2.496094 2.328125 -2.976562 3.464844 -2.976562 Z M 3.464844 -2.976562 "/></g></g></g><g fill="#000000" fill-opacity="1"><g transform="translate(128.766509, 49.597463)"><g><path d="M 0.375 -1.785156 L 3.800781 -1.785156 L 3.800781 -2.472656 L 0.375 -2.472656 Z M 0.375 -1.785156 "/></g></g></g><g fill="#000000" fill-opacity="1"><g transform="translate(132.934551, 49.597463)"><g><path d="M 3.382812 0.167969 C 5.207031 0.167969 6.511719 -0.464844 6.511719 -1.550781 C 6.519531 -2.320312 5.871094 -2.863281 4.960938 -3.039062 C 5.65625 -3.230469 6.136719 -3.6875 6.136719 -4.328125 C 6.136719 -5.296875 4.984375 -5.863281 3.382812 -5.863281 C 1.785156 -5.863281 0.632812 -5.289062 0.632812 -4.34375 C 0.632812 -3.695312 1.144531 -3.230469 1.878906 -3.039062 C 0.929688 -2.871094 0.246094 -2.3125 0.257812 -1.542969 C 0.257812 -0.472656 1.566406 0.167969 3.382812 0.167969 Z M 3.390625 -3.304688 C 2.414062 -3.304688 1.710938 -3.671875 1.710938 -4.222656 C 1.710938 -4.785156 2.40625 -5.144531 3.382812 -5.144531 C 4.351562 -5.144531 5.046875 -4.785156 5.046875 -4.222656 C 5.046875 -3.671875 4.351562 -3.304688 3.390625 -3.304688 Z M 3.382812 -0.558594 C 2.257812 -0.558594 1.433594 -0.960938 1.433594 -1.601562 C 1.433594 -2.222656 2.257812 -2.632812 3.382812 -2.632812 C 4.511719 -2.632812 5.34375 -2.222656 5.34375 -1.59375 C 5.34375 -0.960938 4.511719 -0.558594 3.382812 -0.558594 Z M 3.382812 -0.558594 "/></g></g></g><g fill="#000000" fill-opacity="1"><g transform="translate(139.702618, 49.597463)"><g><path d="M 3.246094 0.183594 C 5.039062 0.183594 6.160156 -0.59375 6.160156 -1.816406 C 6.160156 -3.015625 5.167969 -3.761719 3.574219 -3.761719 C 2.976562 -3.761719 2.367188 -3.609375 2 -3.351562 L 2.105469 -4.878906 L 5.417969 -4.878906 L 5.417969 -5.671875 L 1.183594 -5.671875 L 0.984375 -2.71875 L 1.847656 -2.542969 C 2.136719 -2.839844 2.726562 -3.023438 3.359375 -3.023438 C 4.40625 -3.023438 5.054688 -2.550781 5.054688 -1.800781 C 5.054688 -1.078125 4.359375 -0.632812 3.246094 -0.632812 C 2.128906 -0.632812 1.359375 -1.160156 1.28125 -1.992188 L 0.214844 -1.753906 C 0.375 -0.558594 1.550781 0.183594 3.246094 0.183594 Z M 3.246094 0.183594 "/></g></g></g><g fill="#000000" fill-opacity="1"><g transform="translate(146.102683, 49.597463)"><g><path d="M 3.382812 0.167969 C 5.207031 0.167969 6.511719 -0.464844 6.511719 -1.550781 C 6.519531 -2.320312 5.871094 -2.863281 4.960938 -3.039062 C 5.65625 -3.230469 6.136719 -3.6875 6.136719 -4.328125 C 6.136719 -5.296875 4.984375 -5.863281 3.382812 -5.863281 C 1.785156 -5.863281 0.632812 -5.289062 0.632812 -4.34375 C 0.632812 -3.695312 1.144531 -3.230469 1.878906 -3.039062 C 0.929688 -2.871094 0.246094 -2.3125 0.257812 -1.542969 C 0.257812 -0.472656 1.566406 0.167969 3.382812 0.167969 Z M 3.390625 -3.304688 C 2.414062 -3.304688 1.710938 -3.671875 1.710938 -4.222656 C 1.710938 -4.785156 2.40625 -5.144531 3.382812 -5.144531 C 4.351562 -5.144531 5.046875 -4.785156 5.046875 -4.222656 C 5.046875 -3.671875 4.351562 -3.304688 3.390625 -3.304688 Z M 3.382812 -0.558594 C 2.257812 -0.558594 1.433594 -0.960938 1.433594 -1.601562 C 1.433594 -2.222656 2.257812 -2.632812 3.382812 -2.632812 C 4.511719 -2.632812 5.34375 -2.222656 5.34375 -1.59375 C 5.34375 -0.960938 4.511719 -0.558594 3.382812 -0.558594 Z M 3.382812 -0.558594 "/></g></g></g><g fill="#000000" fill-opacity="1"><g transform="translate(152.87075, 49.597463)"><g><path d="M 3.726562 0.183594 C 5.703125 0.183594 7.070312 -1.078125 7.070312 -2.832031 C 7.070312 -4.59375 5.703125 -5.847656 3.726562 -5.847656 C 1.734375 -5.847656 0.375 -4.59375 0.375 -2.832031 C 0.375 -1.078125 1.734375 0.183594 3.726562 0.183594 Z M 3.726562 -0.640625 C 2.382812 -0.640625 1.488281 -1.550781 1.488281 -2.832031 C 1.488281 -4.121094 2.382812 -5.03125 3.726562 -5.03125 C 5.0625 -5.03125 5.960938 -4.121094 5.960938 -2.832031 C 5.960938 -1.550781 5.0625 -0.640625 3.726562 -0.640625 Z M 3.726562 -0.640625 "/></g></g></g></svg>