<svg xmlns="http://www.w3.org/2000/svg" xmlns:xlink="http://www.w3.org/1999/xlink" width="84" zoomAndPan="magnify" viewBox="0 0 63 46.499999" height="62" preserveAspectRatio="xMidYMid meet" version="1.0"><defs><g/></defs><g fill="#ffffff" fill-opacity="1"><g transform="translate(0.0874341, 35.062251)"><g><path d="M 14.585938 -21.601562 C 8.835938 -25.015625 6.546875 -26.277344 6.546875 -28.238281 C 6.546875 -29.316406 7.339844 -30.0625 8.882812 -30.0625 C 13.558594 -30.0625 20.058594 -25.621094 25.339844 -18.515625 L 25.621094 -18.515625 L 25.621094 -32.074219 L 25.386719 -32.074219 L 22.394531 -30.203125 C 20.664062 -31.277344 18.046875 -32.167969 14.773438 -32.167969 C 8.277344 -32.167969 2.992188 -29.78125 2.898438 -23.144531 C 2.804688 -18.046875 6.125 -15.664062 10.050781 -13.324219 L 15.476562 -10.003906 C 19.917969 -7.386719 23.75 -5.609375 23.75 -3.507812 C 23.75 -2.617188 23.144531 -1.683594 21.039062 -1.683594 C 17.484375 -1.683594 7.808594 -4.441406 2.152344 -15.664062 L 1.824219 -15.617188 L 2.617188 -1.214844 C 6.828125 -0.609375 10.660156 0.933594 15.195312 0.933594 C 23.285156 0.933594 27.304688 -4.019531 27.304688 -9.023438 C 27.304688 -12.996094 24.734375 -15.523438 20.199219 -18.1875 Z M 14.585938 -21.601562 "/></g></g></g><g fill="#ffffff" fill-opacity="1"><g transform="translate(27.527735, 35.062251)"><g><path d="M 33.710938 -31.558594 L 23.9375 -31.558594 L 18.234375 -17.347656 L 18 -17.347656 L 11.222656 -31.652344 L 1.121094 -31.558594 L 1.121094 -31.277344 L 3.742188 -26.601562 L 3.742188 0 L 13.605469 0 L 13.605469 -0.234375 C 7.808594 -4.957031 4.769531 -11.175781 4.769531 -21.226562 L 4.769531 -24.359375 L 5.003906 -24.359375 L 14.214844 -5.5625 L 14.726562 -5.5625 L 22.535156 -24.78125 L 22.816406 -24.78125 L 22.863281 -2.710938 L 20.339844 -0.28125 L 20.339844 0 L 31.980469 0 L 31.933594 -28.847656 L 33.710938 -31.277344 Z M 33.710938 -31.558594 "/></g></g></g></svg>