<svg id="visual" viewBox="0 0 960 300" width="960" height="300" xmlns="http://www.w3.org/2000/svg" xmlns:xlink="http://www.w3.org/1999/xlink" version="1.1"><rect x="0" y="0" width="960" height="300" fill="#fff"></rect><path d="M0 161L9.3 162.3C18.7 163.7 37.3 166.3 56.2 167.3C75 168.3 94 167.7 112.8 165C131.7 162.3 150.3 157.7 169.2 157.5C188 157.3 207 161.7 225.8 159.8C244.7 158 263.3 150 282.2 139.8C301 129.7 320 117.3 338.8 115.2C357.7 113 376.3 121 395.2 132.5C414 144 433 159 451.8 161.2C470.7 163.3 489.3 152.7 508.2 153.2C527 153.7 546 165.3 564.8 162.2C583.7 159 602.3 141 621.2 137C640 133 659 143 677.8 141.3C696.7 139.7 715.3 126.3 734.2 129.3C753 132.3 772 151.7 790.8 153C809.7 154.3 828.3 137.7 847.2 135.7C866 133.7 885 146.3 903.8 147.2C922.7 148 941.3 137 950.7 131.5L960 126L960 301L950.7 301C941.3 301 922.7 301 903.8 301C885 301 866 301 847.2 301C828.3 301 809.7 301 790.8 301C772 301 753 301 734.2 301C715.3 301 696.7 301 677.8 301C659 301 640 301 621.2 301C602.3 301 583.7 301 564.8 301C546 301 527 301 508.2 301C489.3 301 470.7 301 451.8 301C433 301 414 301 395.2 301C376.3 301 357.7 301 338.8 301C320 301 301 301 282.2 301C263.3 301 244.7 301 225.8 301C207 301 188 301 169.2 301C150.3 301 131.7 301 112.8 301C94 301 75 301 56.2 301C37.3 301 18.7 301 9.3 301L0 301Z" fill="#201f1f"></path><path d="M0 147L9.3 146.5C18.7 146 37.3 145 56.2 148.8C75 152.7 94 161.3 112.8 168C131.7 174.7 150.3 179.3 169.2 182.7C188 186 207 188 225.8 179.7C244.7 171.3 263.3 152.7 282.2 152.5C301 152.3 320 170.7 338.8 173.7C357.7 176.7 376.3 164.3 395.2 160.2C414 156 433 160 451.8 165.2C470.7 170.3 489.3 176.7 508.2 172.2C527 167.7 546 152.3 564.8 150.8C583.7 149.3 602.3 161.7 621.2 166.7C640 171.7 659 169.3 677.8 164.5C696.7 159.7 715.3 152.3 734.2 154.8C753 157.3 772 169.7 790.8 169.2C809.7 168.7 828.3 155.3 847.2 153.5C866 151.7 885 161.3 903.8 164.2C922.7 167 941.3 163 950.7 161L960 159L960 301L950.7 301C941.3 301 922.7 301 903.8 301C885 301 866 301 847.2 301C828.3 301 809.7 301 790.8 301C772 301 753 301 734.2 301C715.3 301 696.7 301 677.8 301C659 301 640 301 621.2 301C602.3 301 583.7 301 564.8 301C546 301 527 301 508.2 301C489.3 301 470.7 301 451.8 301C433 301 414 301 395.2 301C376.3 301 357.7 301 338.8 301C320 301 301 301 282.2 301C263.3 301 244.7 301 225.8 301C207 301 188 301 169.2 301C150.3 301 131.7 301 112.8 301C94 301 75 301 56.2 301C37.3 301 18.7 301 9.3 301L0 301Z" fill="#1a1919"></path><path d="M0 186L9.3 191.8C18.7 197.7 37.3 209.3 56.2 213.8C75 218.3 94 215.7 112.8 208.8C131.7 202 150.3 191 169.2 193.3C188 195.7 207 211.3 225.8 218.5C244.7 225.7 263.3 224.3 282.2 219.7C301 215 320 207 338.8 199.5C357.7 192 376.3 185 395.2 189.5C414 194 433 210 451.8 218.2C470.7 226.3 489.3 226.7 508.2 220.8C527 215 546 203 564.8 195.7C583.7 188.3 602.3 185.7 621.2 185.8C640 186 659 189 677.8 192.8C696.7 196.7 715.3 201.3 734.2 199.7C753 198 772 190 790.8 187C809.7 184 828.3 186 847.2 184.2C866 182.3 885 176.7 903.8 182.2C922.7 187.7 941.3 204.3 950.7 212.7L960 221L960 301L950.7 301C941.3 301 922.7 301 903.8 301C885 301 866 301 847.2 301C828.3 301 809.7 301 790.8 301C772 301 753 301 734.2 301C715.3 301 696.7 301 677.8 301C659 301 640 301 621.2 301C602.3 301 583.7 301 564.8 301C546 301 527 301 508.2 301C489.3 301 470.7 301 451.8 301C433 301 414 301 395.2 301C376.3 301 357.7 301 338.8 301C320 301 301 301 282.2 301C263.3 301 244.7 301 225.8 301C207 301 188 301 169.2 301C150.3 301 131.7 301 112.8 301C94 301 75 301 56.2 301C37.3 301 18.7 301 9.3 301L0 301Z" fill="#141313"></path><path d="M0 239L9.3 235.7C18.7 232.3 37.3 225.7 56.2 225C75 224.3 94 229.7 112.8 233.2C131.7 236.7 150.3 238.3 169.2 234C188 229.7 207 219.3 225.8 215.2C244.7 211 263.3 213 282.2 219.2C301 225.3 320 235.7 338.8 238.7C357.7 241.7 376.3 237.3 395.2 234.7C414 232 433 231 451.8 233.3C470.7 235.7 489.3 241.3 508.2 245.2C527 249 546 251 564.8 252C583.7 253 602.3 253 621.2 245.3C640 237.7 659 222.3 677.8 220.5C696.7 218.7 715.3 230.3 734.2 234.7C753 239 772 236 790.8 234.3C809.7 232.7 828.3 232.3 847.2 235.5C866 238.7 885 245.3 903.8 247.7C922.7 250 941.3 248 950.7 247L960 246L960 301L950.7 301C941.3 301 922.7 301 903.8 301C885 301 866 301 847.2 301C828.3 301 809.7 301 790.8 301C772 301 753 301 734.2 301C715.3 301 696.7 301 677.8 301C659 301 640 301 621.2 301C602.3 301 583.7 301 564.8 301C546 301 527 301 508.2 301C489.3 301 470.7 301 451.8 301C433 301 414 301 395.2 301C376.3 301 357.7 301 338.8 301C320 301 301 301 282.2 301C263.3 301 244.7 301 225.8 301C207 301 188 301 169.2 301C150.3 301 131.7 301 112.8 301C94 301 75 301 56.2 301C37.3 301 18.7 301 9.3 301L0 301Z" fill="#0c0b0b"></path><path d="M0 247L9.3 246.2C18.7 245.3 37.3 243.7 56.2 245.5C75 247.3 94 252.7 112.8 254.2C131.7 255.7 150.3 253.3 169.2 255C188 256.7 207 262.3 225.8 266.8C244.7 271.3 263.3 274.7 282.2 275.7C301 276.7 320 275.3 338.8 275.2C357.7 275 376.3 276 395.2 271.7C414 267.3 433 257.7 451.8 256.3C470.7 255 489.3 262 508.2 266.3C527 270.7 546 272.3 564.8 268.5C583.7 264.7 602.3 255.3 621.2 250.3C640 245.3 659 244.7 677.8 244.8C696.7 245 715.3 246 734.2 249.7C753 253.3 772 259.7 790.8 259.5C809.7 259.3 828.3 252.7 847.2 254.2C866 255.7 885 265.3 903.8 270.2C922.7 275 941.3 275 950.7 275L960 275L960 301L950.7 301C941.3 301 922.7 301 903.8 301C885 301 866 301 847.2 301C828.3 301 809.7 301 790.8 301C772 301 753 301 734.2 301C715.3 301 696.7 301 677.8 301C659 301 640 301 621.2 301C602.3 301 583.7 301 564.8 301C546 301 527 301 508.2 301C489.3 301 470.7 301 451.8 301C433 301 414 301 395.2 301C376.3 301 357.7 301 338.8 301C320 301 301 301 282.2 301C263.3 301 244.7 301 225.8 301C207 301 188 301 169.2 301C150.3 301 131.7 301 112.8 301C94 301 75 301 56.2 301C37.3 301 18.7 301 9.3 301L0 301Z" fill="#000000"></path></svg>