<svg id="visual" viewBox="0 0 960 540" width="960" height="540" xmlns="http://www.w3.org/2000/svg" xmlns:xlink="http://www.w3.org/1999/xlink" version="1.1"><rect x="0" y="0" width="960" height="540" fill="#fff"></rect><path d="M0 320L20 319.8C40 319.7 80 319.3 120 325.7C160 332 200 345 240 344.8C280 344.7 320 331.3 360 337.2C400 343 440 368 480 371.5C520 375 560 357 600 348.3C640 339.7 680 340.3 720 348.2C760 356 800 371 840 368.7C880 366.3 920 346.7 940 336.8L960 327L960 541L940 541C920 541 880 541 840 541C800 541 760 541 720 541C680 541 640 541 600 541C560 541 520 541 480 541C440 541 400 541 360 541C320 541 280 541 240 541C200 541 160 541 120 541C80 541 40 541 20 541L0 541Z" fill="#7a7a7a"></path><path d="M0 394L20 390.5C40 387 80 380 120 371.3C160 362.7 200 352.3 240 353.2C280 354 320 366 360 368.5C400 371 440 364 480 361.2C520 358.3 560 359.7 600 363.5C640 367.3 680 373.7 720 377.5C760 381.3 800 382.7 840 376.7C880 370.7 920 357.3 940 350.7L960 344L960 541L940 541C920 541 880 541 840 541C800 541 760 541 720 541C680 541 640 541 600 541C560 541 520 541 480 541C440 541 400 541 360 541C320 541 280 541 240 541C200 541 160 541 120 541C80 541 40 541 20 541L0 541Z" fill="#656565"></path><path d="M0 374L20 377.3C40 380.7 80 387.3 120 394C160 400.7 200 407.3 240 411.3C280 415.3 320 416.7 360 409.8C400 403 440 388 480 386.8C520 385.7 560 398.3 600 404C640 409.7 680 408.3 720 407.5C760 406.7 800 406.3 840 409.7C880 413 920 420 940 423.5L960 427L960 541L940 541C920 541 880 541 840 541C800 541 760 541 720 541C680 541 640 541 600 541C560 541 520 541 480 541C440 541 400 541 360 541C320 541 280 541 240 541C200 541 160 541 120 541C80 541 40 541 20 541L0 541Z" fill="#515151"></path><path d="M0 402L20 404.3C40 406.7 80 411.3 120 414C160 416.7 200 417.3 240 423.8C280 430.3 320 442.7 360 440.7C400 438.7 440 422.3 480 414.8C520 407.3 560 408.7 600 411.7C640 414.7 680 419.3 720 424C760 428.7 800 433.3 840 431.3C880 429.3 920 420.7 940 416.3L960 412L960 541L940 541C920 541 880 541 840 541C800 541 760 541 720 541C680 541 640 541 600 541C560 541 520 541 480 541C440 541 400 541 360 541C320 541 280 541 240 541C200 541 160 541 120 541C80 541 40 541 20 541L0 541Z" fill="#3d3d3d"></path><path d="M0 474L20 472.3C40 470.7 80 467.3 120 463.7C160 460 200 456 240 451.5C280 447 320 442 360 444.7C400 447.3 440 457.7 480 463.3C520 469 560 470 600 468.8C640 467.7 680 464.3 720 463.2C760 462 800 463 840 463C880 463 920 462 940 461.5L960 461L960 541L940 541C920 541 880 541 840 541C800 541 760 541 720 541C680 541 640 541 600 541C560 541 520 541 480 541C440 541 400 541 360 541C320 541 280 541 240 541C200 541 160 541 120 541C80 541 40 541 20 541L0 541Z" fill="#2a2a2a"></path><path d="M0 496L20 493.8C40 491.7 80 487.3 120 487.5C160 487.7 200 492.3 240 492.3C280 492.3 320 487.7 360 483.7C400 479.7 440 476.3 480 473.5C520 470.7 560 468.3 600 466.2C640 464 680 462 720 466.2C760 470.3 800 480.7 840 481.7C880 482.7 920 474.3 940 470.2L960 466L960 541L940 541C920 541 880 541 840 541C800 541 760 541 720 541C680 541 640 541 600 541C560 541 520 541 480 541C440 541 400 541 360 541C320 541 280 541 240 541C200 541 160 541 120 541C80 541 40 541 20 541L0 541Z" fill="#191919"></path><path d="M0 515L20 512.5C40 510 80 505 120 501.2C160 497.3 200 494.7 240 495.3C280 496 320 500 360 500.2C400 500.3 440 496.7 480 497.2C520 497.7 560 502.3 600 501.7C640 501 680 495 720 496.5C760 498 800 507 840 508.5C880 510 920 504 940 501L960 498L960 541L940 541C920 541 880 541 840 541C800 541 760 541 720 541C680 541 640 541 600 541C560 541 520 541 480 541C440 541 400 541 360 541C320 541 280 541 240 541C200 541 160 541 120 541C80 541 40 541 20 541L0 541Z" fill="#000000"></path></svg>