<svg id="visual" viewBox="0 0 960 300" width="960" height="300" xmlns="http://www.w3.org/2000/svg" xmlns:xlink="http://www.w3.org/1999/xlink" version="1.1"><rect x="0" y="0" width="960" height="300" fill="#fff"></rect><path d="M0 157L16 158.3C32 159.7 64 162.3 96 163.8C128 165.3 160 165.7 192 164.5C224 163.3 256 160.7 288 156C320 151.3 352 144.7 384 145C416 145.3 448 152.7 480 159C512 165.3 544 170.7 576 164.8C608 159 640 142 672 136.3C704 130.7 736 136.3 768 139.7C800 143 832 144 864 142.7C896 141.3 928 137.7 944 135.8L960 134L960 0L944 0C928 0 896 0 864 0C832 0 800 0 768 0C736 0 704 0 672 0C640 0 608 0 576 0C544 0 512 0 480 0C448 0 416 0 384 0C352 0 320 0 288 0C256 0 224 0 192 0C160 0 128 0 96 0C64 0 32 0 16 0L0 0Z" fill="#a8a8a8"></path><path d="M0 144L16 143.5C32 143 64 142 96 141C128 140 160 139 192 138C224 137 256 136 288 136.7C320 137.3 352 139.7 384 138.3C416 137 448 132 480 128.2C512 124.3 544 121.7 576 118.2C608 114.7 640 110.3 672 114.7C704 119 736 132 768 138C800 144 832 143 864 135.3C896 127.7 928 113.3 944 106.2L960 99L960 0L944 0C928 0 896 0 864 0C832 0 800 0 768 0C736 0 704 0 672 0C640 0 608 0 576 0C544 0 512 0 480 0C448 0 416 0 384 0C352 0 320 0 288 0C256 0 224 0 192 0C160 0 128 0 96 0C64 0 32 0 16 0L0 0Z" fill="#8a8a8a"></path><path d="M0 107L16 107.2C32 107.3 64 107.7 96 109.8C128 112 160 116 192 113.2C224 110.3 256 100.7 288 97.3C320 94 352 97 384 95.7C416 94.3 448 88.7 480 87.2C512 85.7 544 88.3 576 92.7C608 97 640 103 672 101.5C704 100 736 91 768 91.8C800 92.7 832 103.3 864 105.7C896 108 928 102 944 99L960 96L960 0L944 0C928 0 896 0 864 0C832 0 800 0 768 0C736 0 704 0 672 0C640 0 608 0 576 0C544 0 512 0 480 0C448 0 416 0 384 0C352 0 320 0 288 0C256 0 224 0 192 0C160 0 128 0 96 0C64 0 32 0 16 0L0 0Z" fill="#6d6d6d"></path><path d="M0 71L16 75.3C32 79.7 64 88.3 96 93.2C128 98 160 99 192 97C224 95 256 90 288 83.7C320 77.3 352 69.7 384 70.5C416 71.3 448 80.7 480 88.2C512 95.7 544 101.3 576 96.7C608 92 640 77 672 76.7C704 76.3 736 90.7 768 93.5C800 96.3 832 87.7 864 81.5C896 75.3 928 71.7 944 69.8L960 68L960 0L944 0C928 0 896 0 864 0C832 0 800 0 768 0C736 0 704 0 672 0C640 0 608 0 576 0C544 0 512 0 480 0C448 0 416 0 384 0C352 0 320 0 288 0C256 0 224 0 192 0C160 0 128 0 96 0C64 0 32 0 16 0L0 0Z" fill="#515151"></path><path d="M0 57L16 59.5C32 62 64 67 96 69.5C128 72 160 72 192 67.7C224 63.3 256 54.7 288 55.3C320 56 352 66 384 67.2C416 68.3 448 60.7 480 62C512 63.3 544 73.7 576 76.7C608 79.7 640 75.3 672 71.8C704 68.3 736 65.7 768 65.2C800 64.7 832 66.3 864 66.8C896 67.3 928 66.7 944 66.3L960 66L960 0L944 0C928 0 896 0 864 0C832 0 800 0 768 0C736 0 704 0 672 0C640 0 608 0 576 0C544 0 512 0 480 0C448 0 416 0 384 0C352 0 320 0 288 0C256 0 224 0 192 0C160 0 128 0 96 0C64 0 32 0 16 0L0 0Z" fill="#373737"></path><path d="M0 47L16 48C32 49 64 51 96 51.2C128 51.3 160 49.7 192 46.2C224 42.7 256 37.3 288 34.3C320 31.3 352 30.7 384 33.8C416 37 448 44 480 46C512 48 544 45 576 45.2C608 45.3 640 48.7 672 47C704 45.3 736 38.7 768 36.8C800 35 832 38 864 37.5C896 37 928 33 944 31L960 29L960 0L944 0C928 0 896 0 864 0C832 0 800 0 768 0C736 0 704 0 672 0C640 0 608 0 576 0C544 0 512 0 480 0C448 0 416 0 384 0C352 0 320 0 288 0C256 0 224 0 192 0C160 0 128 0 96 0C64 0 32 0 16 0L0 0Z" fill="#1e1e1e"></path><path d="M0 25L16 25.3C32 25.7 64 26.3 96 27.8C128 29.3 160 31.7 192 33C224 34.3 256 34.7 288 34.5C320 34.3 352 33.7 384 30.3C416 27 448 21 480 21C512 21 544 27 576 29.8C608 32.7 640 32.3 672 32C704 31.7 736 31.3 768 28.8C800 26.3 832 21.7 864 19.3C896 17 928 17 944 17L960 17L960 0L944 0C928 0 896 0 864 0C832 0 800 0 768 0C736 0 704 0 672 0C640 0 608 0 576 0C544 0 512 0 480 0C448 0 416 0 384 0C352 0 320 0 288 0C256 0 224 0 192 0C160 0 128 0 96 0C64 0 32 0 16 0L0 0Z" fill="#000000"></path></svg>