<svg xmlns="http://www.w3.org/2000/svg" xmlns:xlink="http://www.w3.org/1999/xlink" width="329" zoomAndPan="magnify" viewBox="0 0 246.75 68.999997" height="92" preserveAspectRatio="xMidYMid meet" version="1.0"><defs><g/><clipPath id="af65eb06f5"><path d="M 75 0.0351562 L 129 0.0351562 L 129 61 L 75 61 Z M 75 0.0351562 " clip-rule="nonzero"/></clipPath><clipPath id="464855da3a"><path d="M 6.898438 22.921875 L 239.851562 22.921875 L 239.851562 44.527344 L 6.898438 44.527344 Z M 6.898438 22.921875 " clip-rule="nonzero"/></clipPath></defs><g fill="#070707" fill-opacity="1"><g transform="translate(5.202279, 59.684654)"><g><path d="M 46.644531 -57.679688 C 54.75 -52.421875 59.320312 -37.675781 56.558594 -26.726562 L 54.921875 -20.953125 L 54.492188 -20.953125 L 47.074219 -40.867188 L 50.695312 -45.351562 L 50.695312 -45.867188 L 28.796875 -45.867188 L 28.796875 -45.351562 C 31.988281 -41.125 34.574219 -33.96875 31.640625 -24.832031 L 30.519531 -20.863281 L 30.089844 -20.863281 L 19.65625 -53.195312 L 24.054688 -57.679688 L 24.054688 -58.199219 L 0.605469 -58.199219 L 0.605469 -57.679688 L 21.210938 1.378906 L 22.070312 1.378906 L 35.695312 -28.710938 L 36.125 -28.710938 L 48.195312 1.378906 L 49.058594 1.378906 L 69.40625 -57.679688 L 69.40625 -58.199219 L 46.644531 -58.199219 Z M 46.644531 -57.679688 "/></g></g></g><g clip-path="url(#af65eb06f5)"><g fill="#070707" fill-opacity="1"><g transform="translate(72.883946, 59.684654)"><g><path d="M 29.226562 1.292969 C 32.9375 1.292969 55.957031 -3.878906 55.957031 -29.140625 C 55.957031 -45.953125 44.402344 -59.40625 29.054688 -59.40625 C 25.261719 -59.40625 2.242188 -54.230469 2.242188 -28.96875 C 2.242188 -12.15625 13.621094 1.292969 29.226562 1.292969 Z M 39.316406 -3.792969 C 33.625 -2.070312 25.691406 -11.382812 19.570312 -27.503906 C 13.449219 -43.625 14.3125 -52.851562 18.796875 -54.316406 C 24.140625 -55.871094 31.296875 -48.195312 37.332031 -33.109375 C 44.058594 -16.382812 43.972656 -5.34375 39.316406 -3.792969 Z M 39.316406 -3.792969 "/></g></g></g></g><g fill="#070707" fill-opacity="1"><g transform="translate(128.408759, 59.684654)"><g><path d="M 30.089844 -27.933594 L 30.089844 -28.539062 C 48.367188 -30.78125 54.230469 -38.023438 54.230469 -45.265625 C 54.230469 -55.4375 43.367188 -58.199219 30.261719 -58.199219 L 2.84375 -58.199219 L 2.84375 -57.679688 L 7.5 -53.195312 L 7.414062 -5.34375 L 2.929688 -0.515625 L 2.929688 0 L 28.710938 0 L 28.710938 -0.515625 L 24.226562 -5.34375 L 24.226562 -28.453125 L 26.210938 -28.453125 L 37.417969 -5 L 33.109375 -0.515625 L 33.109375 0 L 57.164062 0 L 57.164062 -0.777344 L 42.59375 -28.453125 Z M 24.226562 -56.644531 L 27.675781 -56.644531 C 35.003906 -56.644531 36.558594 -50.957031 36.558594 -44.316406 C 36.558594 -37.9375 35.609375 -30.003906 26.8125 -30.003906 L 24.226562 -30.003906 Z M 24.226562 -56.644531 "/></g></g></g><g fill="#070707" fill-opacity="1"><g transform="translate(184.192226, 59.684654)"><g><path d="M 32.246094 -58.199219 L 32.246094 -57.679688 C 35.4375 -50.351562 34.054688 -39.660156 27.246094 -32.417969 L 24.054688 -29.054688 L 24.054688 -52.851562 L 28.453125 -57.679688 L 28.453125 -58.199219 L 2.757812 -58.199219 L 2.757812 -57.679688 L 7.15625 -52.851562 L 7.15625 -5.34375 L 2.757812 -0.515625 L 2.757812 0 L 28.453125 0 L 28.453125 -0.515625 L 24.054688 -5.34375 L 24.054688 -26.8125 L 24.398438 -27.160156 L 35.953125 -5 L 31.730469 -0.515625 L 31.730469 0 L 55.871094 0 L 55.871094 -0.605469 L 38.796875 -35.523438 L 27.074219 -29.140625 L 26.8125 -29.488281 L 56.042969 -57.679688 L 56.042969 -58.199219 Z M 32.246094 -58.199219 "/></g></g></g><g clip-path="url(#464855da3a)"><path fill="#ffffff" d="M 6.898438 22.921875 L 239.953125 22.921875 L 239.953125 44.425781 L 6.898438 44.425781 Z M 6.898438 22.921875 " fill-opacity="1" fill-rule="nonzero"/></g><g fill="#070707" fill-opacity="1"><g transform="translate(92.694983, 36.839719)"><g><path d="M 2.871094 0 L 4.425781 0 L 6.726562 -5.429688 L 6.738281 -5.429688 L 9.027344 0 L 10.582031 0 L 13.457031 -6.523438 L 12.128906 -6.523438 L 9.792969 -1.085938 L 9.773438 -1.085938 L 7.539062 -6.523438 L 5.917969 -6.523438 L 3.691406 -1.085938 L 3.679688 -1.085938 L 1.324219 -6.523438 L -0.0078125 -6.523438 Z M 2.871094 0 "/></g></g></g><g fill="#070707" fill-opacity="1"><g transform="translate(113.5128, 36.839719)"><g><path d="M 4.886719 0.230469 C 7.59375 0.230469 9.433594 -1.1875 9.433594 -3.257812 C 9.433594 -5.320312 7.59375 -6.753906 4.886719 -6.753906 C 2.191406 -6.753906 0.351562 -5.320312 0.351562 -3.257812 C 0.351562 -1.1875 2.191406 0.230469 4.886719 0.230469 Z M 4.886719 -0.765625 C 2.964844 -0.765625 1.628906 -1.785156 1.628906 -3.257812 C 1.628906 -4.730469 2.964844 -5.753906 4.886719 -5.753906 C 6.808594 -5.753906 8.152344 -4.730469 8.152344 -3.257812 C 8.152344 -1.785156 6.808594 -0.765625 4.886719 -0.765625 Z M 4.886719 -0.765625 "/></g></g></g><g fill="#070707" fill-opacity="1"><g transform="translate(130.658496, 36.839719)"><g><path d="M 7.28125 0.183594 C 7.785156 0.183594 8.253906 -0.0625 8.53125 -0.40625 L 8.144531 -1.011719 C 8.007812 -0.800781 7.804688 -0.652344 7.601562 -0.652344 C 7.351562 -0.652344 7.222656 -0.828125 7.113281 -1.050781 L 6.652344 -1.980469 C 6.496094 -2.328125 6.285156 -2.59375 5.972656 -2.761719 L 5.972656 -2.769531 C 7.167969 -2.898438 7.90625 -3.597656 7.90625 -4.574219 C 7.90625 -5.78125 6.957031 -6.523438 5.429688 -6.523438 L 0.460938 -6.523438 L 0.460938 0 L 1.738281 0 L 1.738281 -2.53125 L 4.398438 -2.53125 C 4.859375 -2.53125 5.246094 -2.246094 5.464844 -1.785156 L 5.964844 -0.726562 C 6.210938 -0.238281 6.589844 0.183594 7.28125 0.183594 Z M 1.738281 -3.414062 L 1.738281 -5.613281 L 5.164062 -5.613281 C 6.054688 -5.613281 6.625 -5.179688 6.625 -4.5 C 6.625 -3.847656 6.054688 -3.414062 5.164062 -3.414062 Z M 1.738281 -3.414062 "/></g></g></g><g fill="#070707" fill-opacity="1"><g transform="translate(146.55255, 36.839719)"><g><path d="M 0.460938 0 L 1.738281 0 L 1.738281 -2.207031 L 2.863281 -3.054688 L 5.84375 0 L 7.480469 0 L 3.773438 -3.773438 L 7.410156 -6.523438 L 5.667969 -6.523438 L 1.75 -3.550781 L 1.738281 -3.550781 L 1.738281 -6.523438 L 0.460938 -6.523438 Z M 0.460938 0 "/></g></g></g></svg>